<?xml version="1.0" encoding="UTF-8"?>
<svg width="60px" height="60px" viewBox="0 0 60 60" version="1.1" xmlns="http://www.w3.org/2000/svg" xmlns:xlink="http://www.w3.org/1999/xlink">
    <title>icon</title>
    <g id="Landing-Page" stroke="none" stroke-width="1" fill="none" fill-rule="evenodd">
        <g id="Landing---Finance-App" transform="translate(-293.000000, -1116.000000)" fill="#F23936">
            <g id="Feature" transform="translate(0.000000, 911.000000)">
                <g id="content" transform="translate(293.000000, 80.000000)">
                    <g id="icon" transform="translate(0.000000, 125.000000)">
                        <path d="M30,60 C46.5685425,60 60,46.5685425 60,30 C60,13.4314575 46.5685425,0 30,0 C13.4314575,0 0,13.4314575 0,30 C0,46.5685425 13.4314575,60 30,60 Z" id="BG" opacity="0.200000003"></path>
                        <g id="speed-test" transform="translate(15.000000, 18.000000)" fill-rule="nonzero">
                            <path d="M21.7015814,9.816 C22.0155349,10.2928457 22.6635349,10.4293029 23.1486977,10.1207314 C23.634,9.81202286 23.7726977,9.17525486 23.4587442,8.69834057 L21.7015814,9.816 Z M6.54117209,8.69834057 C6.22717674,9.17525486 6.36598605,9.81202286 6.8512186,10.1207314 C7.33646512,10.4293029 7.98436744,10.2928457 8.29837674,9.816 L6.54117209,8.69834057 Z M20.0833953,12.5292343 C20.3807442,12.0421029 20.2201395,11.4102857 19.7245116,11.1180343 C19.2288837,10.8257829 18.5860465,10.9836343 18.2886977,11.4707657 L20.0833953,12.5292343 Z M6.62790698,24 L23.372093,24 L23.372093,21.9428571 L6.62790698,21.9428571 L6.62790698,24 Z M30,17.4857143 L30,14.7428571 L27.9069767,14.7428571 L27.9069767,17.4857143 L30,17.4857143 Z M0,14.7428571 L0,17.4857143 L2.09302326,17.4857143 L2.09302326,14.7428571 L0,14.7428571 Z M15,0 C6.71573023,0 0,6.60060343 0,14.7428571 L2.09302326,14.7428571 C2.09302326,7.736736 7.87167907,2.05714286 15,2.05714286 L15,0 Z M30,14.7428571 C30,6.60060343 23.2843256,0 15,0 L15,2.05714286 C22.1282791,2.05714286 27.9069767,7.736736 27.9069767,14.7428571 L30,14.7428571 Z M23.372093,24 C27.0326512,24 30,21.08352 30,17.4857143 L27.9069767,17.4857143 C27.9069767,19.9472914 25.8766047,21.9428571 23.372093,21.9428571 L23.372093,24 Z M6.62790698,21.9428571 C4.12335349,21.9428571 2.09302326,19.9472914 2.09302326,17.4857143 L0,17.4857143 C0,21.08352 2.9674186,24 6.62790698,24 L6.62790698,21.9428571 Z M11.8604651,22.9714286 C11.8604651,21.2672914 13.2661395,19.8857143 15,19.8857143 L15,17.8285714 C12.1101349,17.8285714 9.76744186,20.1310629 9.76744186,22.9714286 L11.8604651,22.9714286 Z M15,19.8857143 C16.7338605,19.8857143 18.1395349,21.2672914 18.1395349,22.9714286 L20.2325581,22.9714286 C20.2325581,20.1310629 17.889907,17.8285714 15,17.8285714 L15,19.8857143 Z M15,6.17142857 C18.4046512,6.17142857 20.3828372,7.81313829 21.7015814,9.816 L23.4587442,8.69834057 C21.8584186,6.26759314 19.2867907,4.11428571 15,4.11428571 L15,6.17142857 Z M8.29837674,9.816 C9.61702326,7.81313829 11.5952233,6.17142857 15,6.17142857 L15,4.11428571 C10.7130837,4.11428571 8.1415814,6.26759314 6.54117209,8.69834057 L8.29837674,9.816 Z M15.8973488,19.3863771 L20.0833953,12.5292343 L18.2886977,11.4707657 L14.1026512,18.3279086 L15.8973488,19.3863771 Z" id="Shape"></path>
                        </g>
                    </g>
                </g>
            </g>
        </g>
    </g>
</svg>