<?xml version="1.0" encoding="UTF-8"?>
<svg width="60px" height="60px" viewBox="0 0 60 60" version="1.1" xmlns="http://www.w3.org/2000/svg" xmlns:xlink="http://www.w3.org/1999/xlink">
    <title>icon</title>
    <g id="Landing-Page" stroke="none" stroke-width="1" fill="none" fill-rule="evenodd">
        <g id="Landing---Finance-App" transform="translate(-293.000000, -1216.000000)">
            <g id="Feature" transform="translate(0.000000, 911.000000)">
                <g id="content" transform="translate(293.000000, 80.000000)">
                    <g id="features" transform="translate(0.000000, 125.000000)">
                        <g id="icon" transform="translate(0.000000, 100.000000)">
                            <path d="M30,60 C46.5685425,60 60,46.5685425 60,30 C60,13.4314575 46.5685425,0 30,0 C13.4314575,0 0,13.4314575 0,30 C0,46.5685425 13.4314575,60 30,60 Z" id="BG" fill="#45C646" opacity="0.200000003"></path>
                            <g id="like" transform="translate(15.000000, 16.000000)" stroke="#45C646" stroke-linecap="round" stroke-linejoin="round" stroke-width="2.31488508">
                                <path d="M6.17302687,7.77777778 L3.08651344,7.77777778 C1.38187836,7.77777778 0,9.17066889 0,10.8888889 L0,24.8888889 C0,26.6071556 1.38187836,28 3.08651344,28 L6.17302687,28 C7.87766195,28 9.25954031,26.6071556 9.25954031,24.8888889 L9.25954031,10.8888889 C9.25954031,9.17066889 7.87766195,7.77777778 6.17302687,7.77777778 Z" id="Path"></path>
                                <path d="M21.4156192,28 L15.7583487,28 C14.5396388,28 13.3482447,27.6363111 12.3341707,26.9549778 L9.94675253,25.3507333 C9.51741851,25.0621778 9.25954031,24.5765333 9.25954031,24.0563556 L9.25954031,11.3020444 C9.25954031,11.0312222 9.3296196,10.7652533 9.46287981,10.5302244 L15.4325672,0 L17.4830924,0 C20.5645131,0 22.4025318,3.46167111 20.6932207,6.04605556 L18.5190806,9.33333333 L26.911928,9.33333333 C28.9200136,9.33333333 30.3933608,11.2354667 29.906309,13.1990444 L27.4043812,23.2868222 C26.7173233,26.0568 24.2482669,28 21.4156192,28 Z" id="Path"></path>
                            </g>
                        </g>
                    </g>
                </g>
            </g>
        </g>
    </g>
</svg>