<?xml version="1.0" encoding="UTF-8"?>
<svg width="60px" height="60px" viewBox="0 0 60 60" version="1.1" xmlns="http://www.w3.org/2000/svg" xmlns:xlink="http://www.w3.org/1999/xlink">
    <title>icon</title>
    <g id="Landing-Page" stroke="none" stroke-width="1" fill="none" fill-rule="evenodd">
        <g id="Landing---Finance-App" transform="translate(-875.000000, -1216.000000)" fill="#008EFF">
            <g id="Feature" transform="translate(0.000000, 911.000000)">
                <g id="content" transform="translate(293.000000, 80.000000)">
                    <g id="features" transform="translate(0.000000, 125.000000)">
                        <g id="icon" transform="translate(582.000000, 100.000000)">
                            <path d="M30,60 C46.5685425,60 60,46.5685425 60,30 C60,13.4314575 46.5685425,0 30,0 C13.4314575,0 0,13.4314575 0,30 C0,46.5685425 13.4314575,60 30,60 Z" id="BG" opacity="0.200000003"></path>
                            <g id="book-03" transform="translate(18.000000, 15.000000)" fill-rule="nonzero">
                                <path d="M22.9714286,16.3953384 L24,16.3953384 L24,15.3488274 L22.9714286,15.3488274 L22.9714286,16.3953384 Z M12,20.5813822 L12,19.5348713 C11.4319543,19.5348713 10.9714286,20.0034291 10.9714286,20.5813822 L12,20.5813822 Z M17.4857143,20.5813822 L18.5142857,20.5813822 C18.5142857,20.0034291 18.05376,19.5348713 17.4857143,19.5348713 L17.4857143,20.5813822 Z M17.4857143,28.9534699 L16.7584457,29.6934229 C17.0526171,29.9927251 17.49504,30.0823064 17.8793143,29.9203065 C18.2637257,29.7583066 18.5142857,29.376679 18.5142857,28.9534699 L17.4857143,28.9534699 Z M12,28.9534699 L10.9714286,28.9534699 C10.9714286,29.376679 11.2219886,29.7583066 11.6064,29.9203065 C11.9906743,30.0823064 12.4330971,29.9927251 12.7272686,29.6934229 L12,28.9534699 Z M14.7428571,26.162774 L15.4701257,25.422821 C15.0684343,25.0141236 14.41728,25.0141236 14.0155886,25.422821 L14.7428571,26.162774 Z M6.51428571,5.58139179 C5.94622629,5.58139179 5.48571429,6.04993568 5.48571429,6.62790275 C5.48571429,7.20586983 5.94622629,7.67441371 6.51428571,7.67441371 L6.51428571,5.58139179 Z M17.4857143,7.67441371 C18.05376,7.67441371 18.5142857,7.20586983 18.5142857,6.62790275 C18.5142857,6.04993568 18.05376,5.58139179 17.4857143,5.58139179 L17.4857143,7.67441371 Z M6.51428571,10.4651096 C5.94622629,10.4651096 5.48571429,10.9336535 5.48571429,11.5116206 C5.48571429,12.0895876 5.94622629,12.5581315 6.51428571,12.5581315 L6.51428571,10.4651096 Z M12,12.5581315 C12.5680457,12.5581315 13.0285714,12.0895876 13.0285714,11.5116206 C13.0285714,10.9336535 12.5680457,10.4651096 12,10.4651096 L12,12.5581315 Z M5.14285714,2.09302192 L18.8571429,2.09302192 L18.8571429,0 L5.14285714,0 L5.14285714,2.09302192 Z M21.9428571,5.23255481 L21.9428571,20.5813822 L24,20.5813822 L24,5.23255481 L21.9428571,5.23255481 Z M2.05714286,20.5813822 L2.05714286,5.23255481 L0,5.23255481 L0,20.5813822 L2.05714286,20.5813822 Z M18.8571429,23.7209151 L18.2693486,23.7209151 L18.2693486,25.813937 L18.8571429,25.813937 L18.8571429,23.7209151 Z M12,23.7209151 L5.14285714,23.7209151 L5.14285714,25.813937 L12,25.813937 L12,23.7209151 Z M0,20.5813822 C0,23.4712874 2.30253257,25.813937 5.14285714,25.813937 L5.14285714,23.7209151 C3.43866514,23.7209151 2.05714286,22.3152416 2.05714286,20.5813822 L0,20.5813822 Z M21.9428571,20.5813822 C21.9428571,22.3152416 20.56128,23.7209151 18.8571429,23.7209151 L18.8571429,25.813937 C21.6975086,25.813937 24,23.4712874 24,20.5813822 L21.9428571,20.5813822 Z M18.8571429,2.09302192 C20.56128,2.09302192 21.9428571,3.49863963 21.9428571,5.23255481 L24,5.23255481 C24,2.34269153 21.6975086,0 18.8571429,0 L18.8571429,2.09302192 Z M5.14285714,0 C2.30253257,0 0,2.34269153 0,5.23255481 L2.05714286,5.23255481 C2.05714286,3.49863963 3.43866514,2.09302192 5.14285714,2.09302192 L5.14285714,0 Z M5.14285714,17.4418494 L22.9714286,17.4418494 L22.9714286,15.3488274 L5.14285714,15.3488274 L5.14285714,17.4418494 Z M21.9428571,16.3953384 L21.9428571,20.5813822 L24,20.5813822 L24,16.3953384 L21.9428571,16.3953384 Z M5.14285714,15.3488274 C2.30253257,15.3488274 0,17.6914771 0,20.5813822 L2.05714286,20.5813822 C2.05714286,18.8475229 3.43866514,17.4418494 5.14285714,17.4418494 L5.14285714,15.3488274 Z M12,21.6278932 L17.4857143,21.6278932 L17.4857143,19.5348713 L12,19.5348713 L12,21.6278932 Z M16.4571429,20.5813822 L16.4571429,28.9534699 L18.5142857,28.9534699 L18.5142857,20.5813822 L16.4571429,20.5813822 Z M13.0285714,28.9534699 L13.0285714,20.5813822 L10.9714286,20.5813822 L10.9714286,28.9534699 L13.0285714,28.9534699 Z M18.2129829,28.2135169 L15.4701257,25.422821 L14.0155886,26.902727 L16.7584457,29.6934229 L18.2129829,28.2135169 Z M14.0155886,25.422821 L11.2727314,28.2135169 L12.7272686,29.6934229 L15.4701257,26.902727 L14.0155886,25.422821 Z M6.51428571,7.67441371 L17.4857143,7.67441371 L17.4857143,5.58139179 L6.51428571,5.58139179 L6.51428571,7.67441371 Z M6.51428571,12.5581315 L12,12.5581315 L12,10.4651096 L6.51428571,10.4651096 L6.51428571,12.5581315 Z" id="Shape"></path>
                            </g>
                        </g>
                    </g>
                </g>
            </g>
        </g>
    </g>
</svg>