<?xml version="1.0" encoding="UTF-8"?>
<svg width="180px" height="60px" viewBox="0 0 180 60" version="1.1" xmlns="http://www.w3.org/2000/svg" xmlns:xlink="http://www.w3.org/1999/xlink">
    <title>icon/app/appstore</title>
    <defs>
        <polygon id="path-1" points="0 0 180 0 180 60 0 60"></polygon>
    </defs>
    <g id="Landing-Page" stroke="none" stroke-width="1" fill="none" fill-rule="evenodd">
        <g id="Landing---Finance-App" transform="translate(-152.000000, -511.000000)">
            <g id="Content" transform="translate(152.000000, 231.000000)">
                <g id="Download_on_the_App_Store_Badge_RU_blk_100317" transform="translate(0.000000, 280.000000)">
                    <g id="Group-3">
                        <mask id="mask-2" fill="white">
                            <use xlink:href="#path-1"></use>
                        </mask>
                        <g id="Clip-2"></g>
                        <path d="M165.664862,-0.0600600601 L14.3426594,-0.0600600601 C13.7906137,-0.0600600601 13.246089,-0.0600600601 12.6955475,-0.0570570571 C12.2352587,-0.0540540541 11.7779783,-0.045045045 11.3131769,-0.0375375375 C10.3113718,-0.0135135135 9.2990373,0.048048048 8.29873646,0.226726727 C7.29241877,0.403903904 6.35679904,0.704204204 5.43922984,1.16816817 C4.53971119,1.62912913 3.71690734,2.22672673 3.00541516,2.93843844 C2.28489771,3.65015015 1.68922984,4.47447447 1.23194946,5.37237237 C0.764139591,6.28678679 0.467809868,7.22522523 0.291817088,8.22972973 C0.111311673,9.22522523 0.0481347774,10.2312312 0.0225631769,11.2357357 C0.00902527076,11.6966967 0.00752105897,12.1591592 0,12.6186186 C0,13.1636637 0,13.7087087 0,14.2582583 L0,45.6831832 C0,46.2372372 0,46.7792793 0,47.3258258 C0.00752105897,47.7912913 0.00902527076,48.2432432 0.0225631769,48.7087087 C0.0481347774,49.7147147 0.111311673,50.7207207 0.291817088,51.7147147 C0.467809868,52.7207207 0.764139591,53.6636637 1.23194946,54.5750751 C1.68922984,55.4684685 2.28489771,56.2927928 3.00541516,56.9984985 C3.71690734,57.7162162 4.53971119,58.3123123 5.43922984,58.7687688 C6.35679904,59.2372372 7.29241877,59.5345345 8.29873646,59.7162162 C9.2990373,59.8948949 10.3113718,59.9534535 11.3131769,59.9804805 C11.7779783,59.990991 12.2352587,59.996997 12.6955475,59.996997 C13.246089,60 13.7906137,60 14.3426594,60 L165.664862,60 C166.207882,60 166.755415,60 167.295427,59.996997 C167.755716,59.996997 168.22503,59.990991 168.683815,59.9804805 C169.691637,59.9534535 170.702467,59.8948949 171.692238,59.7162162 C172.70006,59.5345345 173.63568,59.2372372 174.562274,58.7687688 C175.460289,58.3123123 176.283093,57.7162162 176.996089,56.9984985 C177.71059,56.2927928 178.307762,55.4684685 178.771059,54.5750751 C179.232852,53.6636637 179.533694,52.7207207 179.702166,51.7147147 C179.888688,50.7207207 179.945848,49.7147147 179.983454,48.7087087 C179.987966,48.2432432 179.987966,47.7912913 179.987966,47.3258258 C180,46.7792793 180,46.2372372 180,45.6831832 L180,14.2582583 C180,13.7087087 180,13.1636637 179.987966,12.6186186 C179.987966,12.1591592 179.987966,11.6966967 179.983454,11.2357357 C179.945848,10.2312312 179.888688,9.22522523 179.702166,8.22972973 C179.533694,7.22522523 179.232852,6.28678679 178.771059,5.37237237 C178.307762,4.47447447 177.71059,3.65015015 176.996089,2.93843844 C176.283093,2.22672673 175.460289,1.62912913 174.562274,1.16816817 C173.63568,0.704204204 172.70006,0.403903904 171.692238,0.226726727 C170.702467,0.048048048 169.691637,-0.0135135135 168.683815,-0.0375375375 C168.22503,-0.045045045 167.755716,-0.0540540541 167.295427,-0.0570570571 C166.755415,-0.0600600601 166.207882,-0.0600600601 165.664862,-0.0600600601" id="Fill-1" fill="#A9AAA9" mask="url(#mask-2)"></path>
                    </g>
                    <path d="M12.7030686,58.6861862 C12.244284,58.6861862 11.7975331,58.6801802 11.3432611,58.6696697 C10.5009025,58.6471471 9.50361011,58.5990991 8.53038508,58.4249249 C7.61281588,58.2597598 6.79753309,57.9894895 6.03941035,57.6021021 C5.25421179,57.2057057 4.54873646,56.6921922 3.93802647,56.0765766 C3.31528279,55.4654655 2.80234657,54.7657658 2.40222623,53.978979 C2.01263538,53.2207207 1.74638989,52.4069069 1.58543923,51.490991 C1.40192539,50.4804805 1.35529483,49.4564565 1.33574007,48.6756757 C1.32521059,48.3588589 1.3131769,47.3048048 1.3131769,47.3048048 L1.3131769,12.6186186 C1.3131769,12.6186186 1.3267148,11.5810811 1.33574007,11.2762763 C1.35529483,10.4894895 1.40192539,9.46546547 1.58393502,8.46546547 C1.74488568,7.54354354 2.01113117,6.72972973 2.40222623,5.96996997 C2.80084236,5.18168168 3.31377858,4.47747748 3.9290012,3.87087087 C4.55024067,3.24924925 5.25872443,2.73423423 6.03790614,2.33483483 C6.811071,1.94294294 7.62484958,1.67567568 8.52436823,1.51801802 C9.53820698,1.33783784 10.5640794,1.29129129 11.3462696,1.27177177 L12.7030686,1.25375375 L167.287906,1.25375375 L168.661252,1.27327327 C169.432912,1.29129129 170.460289,1.33783784 171.457581,1.51651652 C172.363117,1.67567568 173.184416,1.94444444 173.971119,2.33933934 C174.74278,2.73423423 175.448255,3.24924925 176.063478,3.86486486 C176.681709,4.47447447 177.194645,5.18318318 177.603791,5.97297297 C177.991877,6.74024024 178.255114,7.55405405 178.410048,8.44894895 C178.583032,9.3963964 178.637184,10.3693694 178.670277,11.2822823 C178.674789,11.7072072 178.674789,12.1651652 178.674789,12.6186186 C178.688327,13.1816817 178.688327,13.7177177 178.688327,14.2582583 L178.688327,45.6831832 C178.688327,46.2282282 178.688327,46.7612613 178.674789,47.2972973 C178.674789,47.7852853 178.674789,48.2327327 178.668773,48.6936937 C178.637184,49.5780781 178.583032,50.5495495 178.411552,51.475976 C178.255114,52.3963964 177.991877,53.2102102 177.599278,53.9834835 C177.194645,54.7642643 176.6787,55.4684685 176.072503,56.0645646 C175.449759,56.6921922 174.744284,57.2042042 173.968111,57.5990991 C173.185921,57.9954955 172.390193,58.2582583 171.457581,58.4249249 C170.494886,58.5990991 169.497593,58.6471471 168.646209,58.6696697 C168.20698,58.6801802 167.743682,58.6861862 167.295427,58.6861862 L165.664862,58.6891892 L12.7030686,58.6861862" id="Fill-4" fill="#000000"></path>
                    <path d="M37.2578219,30.4219219 C37.2202166,26.2912913 40.6453069,24.2807808 40.8032491,24.1861862 C38.8628159,21.3633634 35.8543923,20.9774775 34.7984356,20.9474474 C32.272864,20.6816817 29.8240072,22.4564565 28.5364019,22.4564565 C27.2247292,22.4564565 25.2436823,20.972973 23.1092058,21.018018 C20.362515,21.0600601 17.7903129,22.6486486 16.3808664,25.1141141 C13.4717208,30.1411411 15.6422984,37.53003 18.4280987,41.5930931 C19.822503,43.5840841 21.4515644,45.8078078 23.5845367,45.7282282 C25.6708785,45.6426426 26.4500602,44.3993994 28.9681107,44.3993994 C31.4635981,44.3993994 32.194645,45.7282282 34.3697353,45.6786787 C36.6080024,45.6426426 38.0189531,43.6786787 39.3652226,41.6696697 C40.9762335,39.3888889 41.6230445,37.1411411 41.6486161,37.027027 C41.5959687,37.009009 37.2999398,35.3738739 37.2578219,30.4219219" id="Fill-5" fill="#FFFFFE"></path>
                    <path d="M33.1483153,18.2747748 C34.2704573,16.8738739 35.0376053,14.9684685 34.8255114,13.033033 C33.2009627,13.1051051 31.1702768,14.1546547 30,15.5255255 C28.9651023,16.7327327 28.0415162,18.7117117 28.2791817,20.5720721 C30.1037906,20.7087087 31.9780385,19.6531532 33.1483153,18.2747748" id="Fill-6" fill="#FFFFFE"></path>
                    <path d="M57.2487966,38.3648649 L62.8925993,38.3648649 L60.1098075,30.1861862 L60.0330927,30.1861862 L57.2487966,38.3648649 Z M63.6311673,40.6906907 L56.5117329,40.6906907 L54.801444,45.7297297 L51.7854994,45.7297297 L58.5303851,27.0840841 L61.6636582,27.0840841 L68.4070397,45.7297297 L65.3399519,45.7297297 L63.6311673,40.6906907 L63.6311673,40.6906907 Z" id="Fill-7" fill="#FFFFFE"></path>
                    <path d="M80.099278,38.9339339 C80.099278,36.1816817 78.6732852,34.3723724 76.4996992,34.3723724 C74.3637184,34.3723724 72.9271961,36.2192192 72.9271961,38.9339339 C72.9271961,41.6726727 74.3637184,43.5075075 76.4996992,43.5075075 C78.6732852,43.5075075 80.099278,41.7102102 80.099278,38.9339339 Z M82.9723225,38.9339339 C82.9723225,43.1576577 80.7069795,45.8723724 77.2879061,45.8723724 C75.3474729,45.8723724 73.80716,45.006006 73.003911,43.493994 L72.9392298,43.493994 L72.9392298,50.2267267 L70.1429001,50.2267267 L70.1429001,32.1351351 L72.8489771,32.1351351 L72.8489771,34.3963964 L72.9001203,34.3963964 C73.6777978,32.9384384 75.3354392,31.993994 77.2367629,31.993994 C80.6934416,31.993994 82.9723225,34.7207207 82.9723225,38.9339339 L82.9723225,38.9339339 Z" id="Fill-8" fill="#FFFFFE"></path>
                    <path d="M95.0872443,38.9339339 C95.0872443,36.1816817 93.6627557,34.3723724 91.4891697,34.3723724 C89.3531889,34.3723724 87.9166667,36.2192192 87.9166667,38.9339339 C87.9166667,41.6726727 89.3531889,43.5075075 91.4891697,43.5075075 C93.6627557,43.5075075 95.0872443,41.7102102 95.0872443,38.9339339 Z M97.9602888,38.9339339 C97.9602888,43.1576577 95.6964501,45.8723724 92.2773767,45.8723724 C90.3369434,45.8723724 88.7966306,45.006006 87.9933815,43.493994 L87.9287004,43.493994 L87.9287004,50.2267267 L85.1323706,50.2267267 L85.1323706,32.1351351 L87.8384477,32.1351351 L87.8384477,34.3963964 L87.8895909,34.3963964 C88.6672684,32.9384384 90.3234055,31.993994 92.2262335,31.993994 C95.6829122,31.993994 97.9602888,34.7207207 97.9602888,38.9339339 L97.9602888,38.9339339 Z" id="Fill-9" fill="#FFFFFE"></path>
                    <path d="M107.868532,40.5345345 C108.074609,42.3843844 109.87515,43.5975976 112.333032,43.5975976 C114.690132,43.5975976 116.385379,42.3843844 116.385379,40.7162162 C116.385379,39.2687688 115.362515,38.4024024 112.942238,37.8093093 L110.520457,37.2267267 C107.090854,36.3993994 105.497894,34.7987988 105.497894,32.1996997 C105.497894,28.9834835 108.307762,26.7732733 112.295427,26.7732733 C116.242479,26.7732733 118.948556,28.9834835 119.038809,32.1996997 L116.216907,32.1996997 C116.048436,30.3393393 114.506619,29.2162162 112.256318,29.2162162 C110.003008,29.2162162 108.462696,30.3528529 108.462696,32.006006 C108.462696,33.3243243 109.44645,34.1006006 111.854693,34.6951952 L113.912455,35.1981982 C117.745187,36.1036036 119.338147,37.6396396 119.338147,40.3678679 C119.338147,43.8558559 116.553851,46.0405405 112.126955,46.0405405 C107.984356,46.0405405 105.186522,43.9069069 105.006017,40.5345345 L107.868532,40.5345345" id="Fill-10" fill="#FFFFFE"></path>
                    <path d="M125.370036,28.9189189 L125.370036,32.1351351 L127.960289,32.1351351 L127.960289,34.3453453 L125.370036,34.3453453 L125.370036,41.8393393 C125.370036,43.0045045 125.888989,43.5465465 127.027677,43.5465465 C127.311974,43.5465465 127.766245,43.5075075 127.946751,43.481982 L127.946751,45.6786787 C127.636883,45.7567568 127.015644,45.8078078 126.394404,45.8078078 C123.637184,45.8078078 122.561673,44.7732733 122.561673,42.1381381 L122.561673,34.3453453 L120.58213,34.3453453 L120.58213,32.1351351 L122.561673,32.1351351 L122.561673,28.9189189 L125.370036,28.9189189" id="Fill-11" fill="#FFFFFE"></path>
                    <path d="M139.530686,38.9339339 C139.530686,36 138.184416,34.2672673 135.919073,34.2672673 C133.65373,34.2672673 132.308965,36.012012 132.308965,38.9339339 C132.308965,41.8798799 133.65373,43.5975976 135.919073,43.5975976 C138.184416,43.5975976 139.530686,41.8798799 139.530686,38.9339339 Z M129.459988,38.9339339 C129.459988,34.6561562 131.984055,31.9684685 135.919073,31.9684685 C139.867629,31.9684685 142.379663,34.6561562 142.379663,38.9339339 C142.379663,43.2222222 139.881167,45.8978979 135.919073,45.8978979 C131.958484,45.8978979 129.459988,43.2222222 129.459988,38.9339339 L129.459988,38.9339339 Z" id="Fill-12" fill="#FFFFFE"></path>
                    <path d="M144.684116,32.1351351 L147.351083,32.1351351 L147.351083,34.4489489 L147.415764,34.4489489 C147.84296,32.9114114 149.085439,31.993994 150.690433,31.993994 C151.092058,31.993994 151.427497,32.0465465 151.648616,32.0975976 L151.648616,34.7072072 C151.427497,34.6171171 150.93562,34.539039 150.392599,34.539039 C148.593562,34.539039 147.480445,35.7552553 147.480445,37.6666667 L147.480445,45.7297297 L144.684116,45.7297297 L144.684116,32.1351351" id="Fill-13" fill="#FFFFFE"></path>
                    <path d="M155.087244,37.6801802 L161.895307,37.6801802 C161.830626,35.5990991 160.497894,34.2297297 158.555957,34.2297297 C156.627557,34.2297297 155.230144,35.6261261 155.087244,37.6801802 Z M164.536703,41.7372372 C164.16065,44.2057057 161.753911,45.8978979 158.673285,45.8978979 C154.711191,45.8978979 152.251805,43.2492492 152.251805,38.9984985 C152.251805,34.7342342 154.724729,31.9684685 158.555957,31.9684685 C162.324007,31.9684685 164.693141,34.5525526 164.693141,38.6741742 L164.693141,39.6306306 L155.073706,39.6306306 L155.073706,39.7987988 C155.073706,42.1246246 156.537304,43.6486486 158.737966,43.6486486 C160.290313,43.6486486 161.508724,42.9129129 161.883273,41.7372372 L164.536703,41.7372372 L164.536703,41.7372372 Z" id="Fill-14" fill="#FFFFFE"></path>
                    <path d="M55.2617329,16.8363363 L56.4620939,16.8363363 C57.4578821,16.8363363 58.1543321,16.2522523 58.1543321,15.4084084 C58.1543321,14.5825826 57.5315884,14.048048 56.4756318,14.048048 C55.4302046,14.048048 54.7457882,14.5765766 54.6645608,15.451952 L53.3468712,15.451952 C53.4386282,13.8378378 54.6465102,12.8318318 56.5177497,12.8318318 C58.2851986,12.8318318 59.5291817,13.8198198 59.5291817,15.2402402 C59.5291817,16.2282282 58.8703369,17.0660661 57.8986161,17.2897898 L57.8986161,17.3948949 C59.0628761,17.5135135 59.8947052,18.3138138 59.8947052,19.5615616 C59.8947052,21.0960961 58.4416366,22.2252252 56.5433213,22.2252252 C54.5908544,22.2252252 53.2521059,21.1711712 53.1723827,19.5750751 L54.509627,19.5750751 C54.5908544,20.4309309 55.3790614,20.984985 56.5433213,20.984985 C57.706077,20.984985 58.465704,20.3633634 58.465704,19.487988 C58.465704,18.6006006 57.7512034,18.0525526 56.5012034,18.0525526 L55.2617329,18.0525526 L55.2617329,16.8363363" id="Fill-15" fill="#FFFFFE"></path>
                    <path d="M65.7701564,19.5195195 L65.7701564,18.9534535 L64.1155235,19.0585586 C63.1829122,19.1216216 62.7602286,19.4384384 62.7602286,20.0345345 C62.7602286,20.6426426 63.288207,20.996997 64.0162455,20.996997 C65.0240674,20.996997 65.7701564,20.3573574 65.7701564,19.5195195 Z M61.4154633,20.0960961 C61.4154633,18.8798799 62.3255114,18.1771772 63.9350181,18.0780781 L65.7701564,17.972973 L65.7701564,17.3888889 C65.7701564,16.6756757 65.2978339,16.2717718 64.3832732,16.2717718 C63.6371841,16.2717718 63.1212395,16.545045 62.9708183,17.0225225 L61.6771961,17.0225225 C61.8140794,15.8618619 62.9091456,15.1171171 64.4464501,15.1171171 C66.1447052,15.1171171 67.1013839,15.960961 67.1013839,17.3888889 L67.1013839,22.009009 L65.8137786,22.009009 L65.8137786,21.0585586 L65.7084838,21.0585586 C65.3038508,21.7357357 64.5637786,22.1201201 63.6732852,22.1201201 C62.3676294,22.1201201 61.4154633,21.3318318 61.4154633,20.0960961 L61.4154633,20.0960961 Z" id="Fill-16" fill="#FFFFFE"></path>
                    <polyline id="Fill-17" fill="#FFFFFE" points="70.6498195 16.3708709 70.6498195 22.009009 69.3125752 22.009009 69.3125752 15.2477477 73.7725632 15.2477477 73.7725632 16.3708709 70.6498195 16.3708709"></polyline>
                    <path d="M80.4993983,18.6246246 C80.4993983,17.1966967 79.8209988,16.3333333 78.6898315,16.3333333 C77.5631769,16.3333333 76.86071,17.2147147 76.86071,18.6306306 C76.86071,20.0405405 77.5631769,20.9219219 78.6838147,20.9219219 C79.8209988,20.9219219 80.4993983,20.0585586 80.4993983,18.6246246 Z M81.8742479,18.6246246 C81.8742479,20.7732733 80.7851986,22.1201201 79.0749097,22.1201201 C78.11071,22.1201201 77.3450662,21.6981982 76.9915764,20.984985 L76.8847774,20.984985 L76.8847774,24.2567568 L75.5490373,24.2567568 L75.5490373,15.2477477 L76.8351384,15.2477477 L76.8351384,16.3648649 L76.9359206,16.3648649 C77.3450662,15.5945946 78.1407942,15.1351351 79.0628761,15.1351351 C80.7851986,15.1351351 81.8742479,16.475976 81.8742479,18.6246246 L81.8742479,18.6246246 Z" id="Fill-18" fill="#FFFFFE"></path>
                    <path d="M83.6537304,24.4309309 L83.6537304,23.2807808 C83.7605295,23.3003003 83.9651023,23.3063063 84.0899519,23.3063063 C84.7247292,23.3063063 85.0857401,23.045045 85.3158845,22.3633634 L85.4151625,22.033033 L82.9632972,15.2477477 L84.4193742,15.2477477 L86.1176294,20.6171171 L86.2229242,20.6171171 L87.9151625,15.2477477 L89.3336342,15.2477477 L86.8080626,22.2882883 C86.228941,23.9324324 85.5881468,24.460961 84.2087846,24.460961 C84.0959687,24.460961 83.77858,24.4489489 83.6537304,24.4309309" id="Fill-19" fill="#FFFFFE"></path>
                    <path d="M90.3745487,20.0900901 L91.7057762,20.0900901 C91.8366426,20.6861862 92.3962094,20.996997 93.1783995,20.996997 C94.0688929,20.996997 94.6149218,20.6051051 94.6149218,19.996997 C94.6149218,19.3453453 94.1245487,19.0345345 93.1783995,19.0345345 L92.166065,19.0345345 L92.166065,17.996997 L93.1618532,17.996997 C93.9696149,17.996997 94.3802647,17.6876877 94.3802647,17.1216216 C94.3802647,16.6261261 93.9816486,16.2462462 93.1618532,16.2462462 C92.4142599,16.2462462 91.8667268,16.5630631 91.7809868,17.0975976 L90.4918773,17.0975976 C90.6287605,15.8933934 91.6305656,15.1171171 93.1618532,15.1171171 C94.7713598,15.1171171 95.6919374,15.8438438 95.6919374,16.9864865 C95.6919374,17.6621622 95.2632371,18.2147147 94.6224428,18.3693694 L94.6224428,18.475976 C95.4993983,18.6801802 95.9476534,19.2447447 95.9476534,19.996997 C95.9476534,21.2822823 94.8525872,22.1321321 93.1783995,22.1321321 C91.6997593,22.1321321 90.4978941,21.4564565 90.3745487,20.0900901" id="Fill-20" fill="#FFFFFE"></path>
                    <polyline id="Fill-21" fill="#FFFFFE" points="97.8730445 22.009009 97.8730445 15.2477477 99.1982551 15.2477477 99.1982551 19.8978979 99.3035499 19.8978979 102.424789 15.2477477 103.75 15.2477477 103.75 22.009009 102.424789 22.009009 102.424789 17.3333333 102.325511 17.3333333 99.1982551 22.009009 97.8730445 22.009009"></polyline>
                    <polyline id="Fill-22" fill="#FFFFFE" points="111.04994 16.3708709 108.916968 16.3708709 108.916968 22.009009 107.578219 22.009009 107.578219 16.3708709 105.445247 16.3708709 105.445247 15.2477477 111.04994 15.2477477 111.04994 16.3708709"></polyline>
                    <path d="M113.548436,18.0045045 L116.967509,18.0045045 C116.937425,16.9429429 116.290614,16.2522523 115.302347,16.2522523 C114.312575,16.2522523 113.622142,16.9489489 113.548436,18.0045045 Z M118.250602,20.1831832 C117.945247,21.3948949 116.862214,22.1396396 115.31438,22.1396396 C113.373947,22.1396396 112.18562,20.8108108 112.18562,18.6486486 C112.18562,16.487988 113.398014,15.1171171 115.308363,15.1171171 C117.193141,15.1171171 118.331829,16.4024024 118.331829,18.5255255 L118.331829,18.990991 L113.548436,18.990991 L113.548436,19.0660661 C113.590554,20.2507508 114.280987,21.003003 115.351986,21.003003 C116.159747,21.003003 116.713297,20.7102102 116.961492,20.1831832 L118.250602,20.1831832 L118.250602,20.1831832 Z" id="Fill-23" fill="#FFFFFE"></path>
                    <path d="M125.242178,19.003003 L125.242178,20.984985 L126.827617,20.984985 C127.617329,20.984985 128.041516,20.6366366 128.041516,19.996997 C128.041516,19.3198198 127.561673,19.003003 126.66065,19.003003 L125.242178,19.003003 Z M125.242178,16.2717718 L125.242178,18.0225225 L126.567389,18.0225225 C127.37515,18.0225225 127.761733,17.7117117 127.761733,17.1411411 C127.761733,16.6126126 127.424789,16.2717718 126.716306,16.2717718 L125.242178,16.2717718 Z M123.916968,15.2477477 L126.972022,15.2477477 C128.295728,15.2477477 129.073406,15.9174174 129.073406,16.966967 C129.073406,17.6501502 128.589049,18.2702703 127.9287,18.3948949 L127.9287,18.5 C128.805656,18.6006006 129.377256,19.2402402 129.377256,20.0585586 C129.377256,21.2387387 128.489771,22.009009 127.002106,22.009009 L123.916968,22.009009 L123.916968,15.2477477 L123.916968,15.2477477 Z" id="Fill-24" fill="#FFFFFE"></path>
                </g>
            </g>
        </g>
    </g>
</svg>