<?xml version="1.0" encoding="UTF-8"?>
<svg width="14px" height="13px" viewBox="0 0 14 13" version="1.1" xmlns="http://www.w3.org/2000/svg" xmlns:xlink="http://www.w3.org/1999/xlink">
    <title>4</title>
    <g id="Landing-Page" stroke="none" stroke-width="1" fill="none" fill-rule="evenodd">
        <g id="Landing---Finance-App" transform="translate(-271.000000, -2039.000000)" fill="#18181B">
            <g id="Footer" transform="translate(0.000000, 1956.000000)">
                <g id="content" transform="translate(152.000000, 80.000000)">
                    <g id="Social" transform="translate(0.000000, 3.226562)">
                        <g id="Group" transform="translate(119.094727, 0.000000)">
                            <path d="M0,6.47989612 C0,9.34185034 1.86296988,11.7718121 4.42792855,12.6357983 C4.75192334,12.6897974 4.85992169,12.5008002 4.85992169,12.3118032 C4.85992169,12.1498058 4.85992169,11.7448117 4.85992169,11.2048204 C3.65394116,11.474816 2.92495287,11.1868209 2.67295683,10.3408351 C2.47496001,9.83684314 2.23196395,9.52184819 1.94396863,9.3958502 C1.547975,9.12585453 1.56597473,8.99085669 1.99796783,8.99085669 C2.42996089,9.02685612 2.76295555,9.25185251 2.99695181,9.66584587 C3.56394265,10.6648299 4.50892746,10.3678346 4.88692136,10.2058372 C4.94092049,9.77384413 5.10291788,9.50384827 5.29191484,9.34185086 C3.86093784,9.17985345 2.3489621,8.61286157 2.3489621,6.12890144 C2.3489621,5.42691272 2.59195818,4.83292232 3.02395122,4.40092924 C2.96995209,4.23893183 2.72695597,3.59094236 3.0779503,2.67295705 C3.43794459,2.5649588 4.03193505,2.78995519 4.85992169,3.34794623 C5.37291342,3.21294839 5.93990429,3.13194964 6.47989559,3.13194964 C7.01988689,3.13194964 7.58687776,3.21294839 8.09986949,3.34794623 C8.92785613,2.78995519 9.52184642,2.5649588 9.88184037,2.67295705 C10.2328347,3.56394275 10.0168384,4.21193228 9.9358397,4.40092924 C10.3408332,4.8599219 10.6108288,5.42691272 10.6108288,6.12890144 C10.6108288,8.61286157 9.09885321,9.15285327 7.64087668,9.31485067 C7.88387276,9.50384764 8.07286982,9.90884155 8.07286982,10.502832 C8.07286982,11.3668182 8.07286982,12.0688065 8.07286982,12.2848031 C8.07286982,12.4468005 8.1808683,12.6627972 8.53186263,12.6087981 C11.0968213,11.7718115 12.9597912,9.34185034 12.9597912,6.47989612 C12.9597912,2.88895364 10.0708378,0 6.47989559,0 C2.8889534,0 0,2.88895364 0,6.47989612 Z" id="Vector"></path>
                        </g>
                    </g>
                </g>
            </g>
        </g>
    </g>
</svg>