<?xml version="1.0" encoding="UTF-8"?>
<svg width="203px" height="60px" viewBox="0 0 203 60" version="1.1" xmlns="http://www.w3.org/2000/svg" xmlns:xlink="http://www.w3.org/1999/xlink">
    <title>icon/app/googlestore</title>
    <defs>
        <polygon id="path-1" points="0 0 202.481623 0 202.481623 60 0 60"></polygon>
    </defs>
    <g id="Landing-Page" stroke="none" stroke-width="1" fill="none" fill-rule="evenodd">
        <g id="Landing---Finance-App" transform="translate(-364.000000, -511.000000)">
            <g id="Content" transform="translate(152.000000, 231.000000)">
                <g id="google-play-badge" transform="translate(212.000000, 280.000000)">
                    <g id="Group-4" transform="translate(0.000000, 0.000000)">
                        <mask id="mask-2" fill="white">
                            <use xlink:href="#path-1"></use>
                        </mask>
                        <g id="Clip-2"></g>
                        <path d="M194.981584,59.9996865 L7.48123109,59.9996865 C3.35630358,59.9996865 -0.0188080896,56.6248883 -0.0188080896,52.4996473 L-0.0188080896,7.49972572 C-0.0188080896,3.37448474 3.35630358,-0.000313468159 7.48123109,-0.000313468159 L194.981584,-0.000313468159 C199.106511,-0.000313468159 202.481623,3.37448474 202.481623,7.49972572 L202.481623,52.4996473 C202.481623,56.6248883 199.106511,59.9996865 194.981584,59.9996865" id="Fill-1" fill="#0A0B09" mask="url(#mask-2)"></path>
                        <path d="M194.981584,0 L7.48123109,0 C3.35630358,0 -0.0188080896,3.3747982 -0.0188080896,7.50003918 L-0.0188080896,52.4999608 C-0.0188080896,56.6252018 3.35630358,60 7.48123109,60 L194.981584,60 C199.106511,60 202.481623,56.6252018 202.481623,52.4999608 L202.481623,7.50003918 C202.481623,3.3747982 199.106511,0 194.981584,0 M194.981584,1.19995611 C198.455751,1.19995611 201.281667,4.02587157 201.281667,7.50003918 L201.281667,52.4999608 C201.281667,55.9741284 198.455751,58.8000439 194.981584,58.8000439 L7.48123109,58.8000439 C4.00706348,58.8000439 1.18114802,55.9741284 1.18114802,52.4999608 L1.18114802,7.50003918 C1.18114802,4.02587157 4.00706348,1.19995611 7.48123109,1.19995611 L194.981584,1.19995611" id="Fill-3" fill="#9D9E9A" mask="url(#mask-2)"></path>
                    </g>
                    <path d="M160.38567,44.9999216 L163.184628,44.9999216 L163.184628,26.2485698 L160.38567,26.2485698 L160.38567,44.9999216 Z M185.596034,33.0028682 L182.387687,41.1329784 L182.291452,41.1329784 L178.96148,33.0028682 L175.946543,33.0028682 L180.940091,44.3654621 L178.093173,50.6865475 L181.012189,50.6865475 L188.708459,33.0028682 L185.596034,33.0028682 Z M169.722946,42.8699055 C168.805112,42.8699055 167.527102,42.4109881 167.527102,41.2768603 C167.527102,39.8295778 169.11858,39.275993 170.494078,39.275993 C171.724127,39.275993 172.303103,39.5415006 173.051665,39.9029294 C172.834118,41.6398564 171.338561,42.8699055 169.722946,42.8699055 L169.722946,42.8699055 Z M170.060552,32.5934788 C168.03398,32.5934788 165.934057,33.4859227 165.065436,35.4629663 L167.550926,36.5008594 C168.081941,35.4629663 169.070619,35.1253611 170.108512,35.1253611 C171.556108,35.1253611 173.027528,35.9939814 173.051665,37.5374986 L173.051665,37.7309085 C172.544473,37.4415774 171.45862,37.0080509 170.132649,37.0080509 C167.455004,37.0080509 164.728145,38.4794704 164.728145,41.2288997 C164.728145,43.7385258 166.923989,45.3541407 169.384087,45.3541407 C171.266464,45.3541407 172.303103,44.5109113 172.95543,43.5209789 L173.051665,43.5209789 L173.051665,44.9685748 L175.753133,44.9685748 L175.753133,37.7788691 C175.753133,34.4504642 173.269212,32.5934788 170.060552,32.5934788 L170.060552,32.5934788 Z M152.762438,35.2858568 L148.781393,35.2858568 L148.781393,28.8569384 L152.762438,28.8569384 C154.855152,28.8569384 156.042882,30.5910442 156.042882,32.0715543 C156.042882,33.5251062 154.855152,35.2858568 152.762438,35.2858568 L152.762438,35.2858568 Z M152.690654,26.2485698 L145.984003,26.2485698 L145.984003,44.9999216 L148.781393,44.9999216 L148.781393,37.8961062 L152.690654,37.8961062 C155.792421,37.8961062 158.842153,35.648853 158.842153,32.0715543 C158.842153,28.4939422 155.792421,26.2485698 152.690654,26.2485698 L152.690654,26.2485698 Z M116.118951,42.8730402 C114.185479,42.8730402 112.567043,41.2546041 112.567043,39.0314879 C112.567043,36.7845481 114.185479,35.1404076 116.118951,35.1404076 C118.028599,35.1404076 119.525409,36.7845481 119.525409,39.0314879 C119.525409,41.2546041 118.028599,42.8730402 116.118951,42.8730402 L116.118951,42.8730402 Z M119.331999,34.0529866 L119.236078,34.0529866 C118.607574,33.3044246 117.400095,32.626393 115.87758,32.626393 C112.686788,32.626393 109.763384,35.4300522 109.763384,39.0314879 C109.763384,42.6075326 112.686788,45.3870548 115.87758,45.3870548 C117.400095,45.3870548 118.607574,44.7105905 119.236078,43.9366376 L119.331999,43.9366376 L119.331999,44.8544724 C119.331999,47.2963894 118.028599,48.6001034 115.925541,48.6001034 C114.209303,48.6001034 113.146019,47.368487 112.710925,46.3290266 L110.270575,47.3446635 C110.970863,49.0364511 112.832551,51.1141181 115.925541,51.1141181 C119.211941,51.1141181 121.991463,49.1806465 121.991463,44.4689066 L121.991463,33.0135262 L119.331999,33.0135262 L119.331999,34.0529866 Z M123.923367,44.9999216 L126.727027,44.9999216 L126.727027,26.2470025 L123.923367,26.2470025 L123.923367,44.9999216 Z M130.859477,38.813941 C130.78738,36.347887 132.769125,35.092447 134.193838,35.092447 C135.306964,35.092447 136.248936,35.6475991 136.562404,36.4453756 L130.859477,38.813941 Z M139.559473,36.6870595 C139.02689,35.2604659 137.408454,32.626393 134.097917,32.626393 C130.811517,32.626393 128.081523,35.2125053 128.081523,39.0073508 C128.081523,42.5833956 130.78738,45.3870548 134.411385,45.3870548 C137.336357,45.3870548 139.02689,43.5990324 139.729059,42.559572 L137.553903,41.1091548 C136.827911,42.1724388 135.837979,42.8730402 134.411385,42.8730402 C132.986359,42.8730402 131.971036,42.2203995 131.318395,40.9411359 L139.849117,37.4114844 L139.559473,36.6870595 Z M71.5973815,34.585569 L71.5973815,37.2914261 L78.0730067,37.2914261 C77.8792834,38.813941 77.3724054,39.9254991 76.5997064,40.6978846 C75.6564807,41.6414238 74.1819265,42.6796303 71.5973815,42.6796303 C67.6088126,42.6796303 64.4916853,39.4665817 64.4916853,35.4780128 C64.4916853,31.4910113 67.6088126,28.2779627 71.5973815,28.2779627 C73.7484,28.2779627 75.3188755,29.1224459 76.4783942,30.2098669 L78.3877288,28.3020997 C76.7677253,26.7554478 74.6182741,25.5705382 71.5973815,25.5705382 C66.1358258,25.5705382 61.5444576,30.0180244 61.5444576,35.4780128 C61.5444576,40.9411359 66.1358258,45.3870548 71.5973815,45.3870548 C74.5449226,45.3870548 76.7677253,44.4193786 78.5077871,42.6075326 C80.2958095,40.8195103 80.8525289,38.307063 80.8525289,36.2761028 C80.8525289,35.6475991 80.8042548,35.0686234 80.7067662,34.585569 L71.5973815,34.585569 Z M88.2143286,42.8730402 C86.2824244,42.8730402 84.6144603,41.2784276 84.6144603,39.0073508 C84.6144603,36.7108831 86.2824244,35.1404076 88.2143286,35.1404076 C90.1478002,35.1404076 91.8157643,36.7108831 91.8157643,39.0073508 C91.8157643,41.2784276 90.1478002,42.8730402 88.2143286,42.8730402 L88.2143286,42.8730402 Z M88.2143286,32.626393 C84.6862445,32.626393 81.8108011,35.3099939 81.8108011,39.0073508 C81.8108011,42.6796303 84.6862445,45.3870548 88.2143286,45.3870548 C91.7424128,45.3870548 94.6194235,42.6796303 94.6194235,39.0073508 C94.6194235,35.3099939 91.7424128,32.626393 88.2143286,32.626393 L88.2143286,32.626393 Z M102.185291,42.8730402 C100.251819,42.8730402 98.5838553,41.2784276 98.5838553,39.0073508 C98.5838553,36.7108831 100.251819,35.1404076 102.185291,35.1404076 C104.119076,35.1404076 105.785473,36.7108831 105.785473,39.0073508 C105.785473,41.2784276 104.119076,42.8730402 102.185291,42.8730402 L102.185291,42.8730402 Z M102.185291,32.626393 C98.6575204,32.626393 95.7817635,35.3099939 95.7817635,39.0073508 C95.7817635,42.6796303 98.6575204,45.3870548 102.185291,45.3870548 C105.713375,45.3870548 108.588819,42.6796303 108.588819,39.0073508 C108.588819,35.3099939 105.713375,32.626393 102.185291,32.626393 L102.185291,32.626393 Z" id="Fill-5" fill="#FFFFFE"></path>
                    <path d="M31.0571714,29.135925 L15.0865956,46.0860888 C15.0881629,46.08891 15.0881629,46.093612 15.0894168,46.0964333 C15.5799945,47.9371183 17.2598703,49.2916142 19.2550952,49.2916142 C20.0528716,49.2916142 20.8014336,49.0756346 21.4434164,48.697592 L21.4945117,48.6674991 L39.4706568,38.2951512 L31.0571714,29.135925" id="Fill-6" fill="#D84037"></path>
                    <path d="M47.2133203,26.2498237 L47.1985873,26.2391658 L39.4374291,21.7405842 L30.6938618,29.5211774 L39.468776,38.2932704 L47.1879294,33.8398282 C48.540858,33.1075666 49.4605735,31.6812865 49.4605735,30.037146 C49.4605735,28.4020961 48.5543371,26.9830257 47.2133203,26.2498237" id="Fill-7" fill="#F0B628"></path>
                    <path d="M15.0862821,13.9154785 C14.9903609,14.2693841 14.9392655,14.6414708 14.9392655,15.0254693 L14.9392655,44.9776654 C14.9392655,45.3616639 14.9903609,45.7334371 15.0878495,46.0860888 L31.6057406,29.5694515 L15.0862821,13.9154785" id="Fill-8" fill="#5373AA"></path>
                    <path d="M31.1750354,30.0014106 L39.4399369,21.737763 L21.4851077,11.3277989 C20.8324669,10.9362771 20.0704258,10.711207 19.2560356,10.711207 C17.2608107,10.711207 15.5778002,12.0688376 15.087536,13.9107765 C15.087536,13.9123439 15.0859686,13.9139112 15.0859686,13.9151651 L31.1750354,30.0014106" id="Fill-9" fill="#319F4F"></path>
                    <path d="M64.5822776,19.2692012 C63.8384176,18.843198 63.2531726,18.2557587 62.8271693,17.5075102 C62.4005392,16.7592617 62.1876943,15.9329596 62.1876943,15.027977 C62.1876943,14.1233079 62.4005392,13.2966924 62.8271693,12.5484439 C63.2531726,11.8005089 63.8384176,11.2130695 64.5822776,10.7867528 C65.3261375,10.3604361 66.1502453,10.1472778 67.0552279,10.1472778 C68.4561171,10.1472778 69.608426,10.6560366 70.5134086,11.6738677 L69.5087431,12.6528288 C69.1868113,12.2700842 68.8278903,11.9832608 68.43198,11.7914183 C68.0360697,11.6002027 67.5815409,11.5042815 67.0683935,11.5042815 C66.433307,11.5042815 65.8546448,11.6500441 65.3327203,11.9415695 C64.8107958,12.2334084 64.3973313,12.646246 64.0929538,13.1813361 C63.7882627,13.7164263 63.6362306,14.3320777 63.6362306,15.027977 C63.6362306,15.7238763 63.7882627,16.3395278 64.0929538,16.874618 C64.3973313,17.4093946 64.8107958,17.8231726 65.3327203,18.1140711 C65.8546448,18.4059099 66.433307,18.5516726 67.0683935,18.5516726 C68.1297967,18.5516726 69.0213002,18.1121903 69.7435308,17.233539 L70.7745276,18.2253523 C70.322193,18.7560539 69.7780123,19.1695184 69.1432393,19.4651188 C68.5081528,19.7604058 67.8122535,19.9086763 67.0552279,19.9086763 C66.1502453,19.9086763 65.3261375,19.6955179 64.5822776,19.2692012" id="Fill-10" fill="#FFFFFE"></path>
                    <polyline id="Fill-11" fill="#FFFFFE" points="72.3794846 10.3560476 73.8151687 10.3560476 73.8151687 14.8844086 73.8932223 14.8844086 77.6128355 10.3560476 79.4137101 10.3560476 79.4137101 10.4344146 75.4724749 15.1063441 79.6224798 19.6215394 79.6224798 19.6999065 77.7432382 19.6999065 73.8932223 15.4194988 73.8151687 15.4194988 73.8151687 19.6999065 72.3794846 19.6999065 72.3794846 10.3560476"></polyline>
                    <path d="M86.3037402,15.9677546 L85.2598912,13.1029691 L84.907553,12.0331022 L84.829186,12.0331022 L84.4768478,13.1029691 L83.4329988,15.9677546 L86.3037402,15.9677546 Z M84.0461425,10.3560476 L85.6774308,10.3560476 L89.2139786,19.6999065 L87.6350395,19.6999065 L86.773629,17.2987404 L82.96311,17.2987404 L82.1016995,19.6999065 L80.5227604,19.6999065 L84.0461425,10.3560476 L84.0461425,10.3560476 Z" id="Fill-12" fill="#FFFFFE"></path>
                    <path d="M94.6169158,15.5370493 C94.033865,16.0501967 93.3160229,16.3069271 92.463703,16.3069271 C91.897893,16.3069271 91.3869399,16.1918843 90.9302168,15.9608583 C90.4734937,15.7307726 90.1145726,15.3978695 89.8534536,14.9627757 C89.5923347,14.5276819 89.4619319,14.0145345 89.4619319,13.4230201 L89.4619319,10.3560476 L90.9104683,10.3560476 L90.9104683,13.1747533 C90.9104683,13.7405633 91.0759795,14.1778514 91.4066884,14.4863041 C91.7370838,14.7950702 92.1806413,14.9499235 92.7376742,14.9499235 C93.4946998,14.9499235 94.1210092,14.6540095 94.6169158,14.0624951 L94.6169158,10.3560476 L96.0394343,10.3560476 L96.0394343,19.6999065 L94.6169158,19.6999065 L94.6169158,15.5370493" id="Fill-13" fill="#FFFFFE"></path>
                    <path d="M103.085885,15.9677546 L102.042036,13.1029691 L101.689698,12.0331022 L101.611331,12.0331022 L101.258993,13.1029691 L100.215144,15.9677546 L103.085885,15.9677546 Z M100.828287,10.3560476 L102.459576,10.3560476 L105.996123,19.6999065 L104.417184,19.6999065 L103.555774,17.2987404 L99.7452549,17.2987404 L98.8838444,19.6999065 L97.3049053,19.6999065 L100.828287,10.3560476 L100.828287,10.3560476 Z" id="Fill-14" fill="#FFFFFE"></path>
                    <polyline id="Fill-15" fill="#FFFFFE" points="108.423621 11.7130512 105.800519 11.7130512 105.800519 10.3560476 112.469241 10.3560476 112.469241 11.7130512 109.859305 11.7130512 109.859305 19.6999065 108.423621 19.6999065 108.423621 11.7130512"></polyline>
                    <path d="M117.480029,18.355755 C117.819515,18.355755 118.119505,18.277388 118.380623,18.1209674 C118.641742,17.9642333 118.841735,17.7576578 118.980915,17.5009273 C119.120095,17.2445104 119.189685,16.97242 119.189685,16.6852832 C119.189685,16.3984598 119.120095,16.1266829 118.980915,15.869639 C118.841735,15.6132221 118.641742,15.4044523 118.380623,15.2433297 C118.119505,15.082207 117.819515,15.0019592 117.480029,15.0019592 L115.392332,15.0019592 L115.392332,18.355755 L117.480029,18.355755 Z M113.956647,10.3560476 L115.392332,10.3560476 L115.392332,13.6838256 L117.375645,13.6838256 C117.958695,13.6838256 118.498174,13.8032569 118.994081,14.0427466 C119.489987,14.2822363 119.885584,14.6298725 120.181498,15.0865956 C120.477412,15.5433187 120.625056,16.0762146 120.625056,16.6852832 C120.625056,17.2943518 120.477412,17.8272477 120.181498,18.2839708 C119.885584,18.7406939 119.489987,19.0911513 118.994081,19.3344026 C118.498174,19.5779674 117.958695,19.6999065 117.375645,19.6999065 L113.956647,19.6999065 L113.956647,10.3560476 L113.956647,10.3560476 Z" id="Fill-16" fill="#FFFFFE"></path>
                    <polyline id="Fill-17" fill="#FFFFFE" points="125.244949 10.3560476 126.667154 10.3560476 126.667154 15.5238837 126.589101 17.3247582 126.667154 17.3247582 130.856343 10.3560476 132.487631 10.3560476 132.487631 19.6999065 131.065113 19.6999065 131.065113 14.4016677 131.14348 12.6004796 131.065113 12.6004796 126.810723 19.6999065 125.244949 19.6999065 125.244949 10.3560476"></polyline>
                    <path d="M135.299754,19.3083848 C134.712628,18.9083994 134.310135,18.3165715 134.092588,17.533528 L135.410408,17.0116035 C135.52357,17.4987331 135.743311,17.8814777 136.069632,18.1601509 C136.395952,18.4385106 136.781204,18.5776905 137.224762,18.5776905 C137.703114,18.5776905 138.11219,18.4275392 138.451363,18.1272367 C138.790849,17.8272477 138.960435,17.4554745 138.960435,17.0116035 C138.960435,16.7244667 138.877366,16.4614669 138.712482,16.2219773 C138.546971,15.9831145 138.32096,15.7937797 138.033823,15.6545999 C137.746686,15.5151066 137.433532,15.4458301 137.094359,15.4458301 L136.324168,15.4458301 L136.324168,14.1928979 L137.015992,14.1928979 C137.485881,14.1928979 137.877089,14.0643759 138.190557,13.8076455 C138.503712,13.5512285 138.660133,13.2054732 138.660133,12.7700659 C138.660133,12.3876347 138.51437,12.0700915 138.222845,11.8174361 C137.931319,11.5654077 137.56801,11.4390801 137.133543,11.4390801 C136.742021,11.4390801 136.410999,11.5566306 136.141416,11.7914183 C135.87152,12.0262059 135.684693,12.3048791 135.580308,12.6264975 L134.31421,12.104573 C134.496962,11.5917391 134.829865,11.1372102 135.31292,10.7409865 C135.795661,10.3450762 136.40661,10.1472778 137.146395,10.1472778 C137.711578,10.1472778 138.214381,10.2582455 138.65355,10.480181 C139.093032,10.701803 139.436593,11.006494 139.684547,11.3936272 C139.9325,11.7807604 140.056633,12.2180485 140.056633,12.7048645 C140.056633,13.6098471 139.660409,14.2797285 138.868902,14.7148223 L138.868902,14.7931894 C139.312773,14.9931821 139.673575,15.2847075 139.952248,15.6674521 C140.230295,16.0501967 140.369788,16.5156969 140.369788,17.0639527 C140.369788,17.5946543 140.232489,18.0773953 139.958518,18.5124891 C139.684547,18.9475829 139.308071,19.2886363 138.830032,19.5365896 C138.351053,19.7845429 137.815963,19.9086763 137.224762,19.9086763 C136.528549,19.9086763 135.88688,19.7083701 135.299754,19.3083848" id="Fill-18" fill="#FFFFFE"></path>
                </g>
            </g>
        </g>
    </g>
</svg>