<?xml version="1.0" encoding="UTF-8"?>
<svg width="14px" height="14px" viewBox="0 0 14 14" version="1.1" xmlns="http://www.w3.org/2000/svg" xmlns:xlink="http://www.w3.org/1999/xlink">
    <title>logo-instagram 1</title>
    <g id="Landing-Page" stroke="none" stroke-width="1" fill="none" fill-rule="evenodd">
        <g id="Landing---Finance-App" transform="translate(-230.000000, -2039.000000)" fill="#18181B">
            <g id="Footer" transform="translate(0.000000, 1956.000000)">
                <g id="content" transform="translate(152.000000, 80.000000)">
                    <g id="Social" transform="translate(0.000000, 3.226562)">
                        <g id="Group" transform="translate(78.193359, 0.000000)">
                            <path d="M9.51161323,1.2599999 C9.94121668,1.26525703 10.3667381,1.34414206 10.7696783,1.49322569 C11.0618847,1.6059168 11.3272555,1.77854559 11.5487096,2 C11.7701638,2.22145381 11.9427937,2.48682548 12.0554848,2.77903186 C12.2045684,3.18197201 12.2834533,3.60749302 12.2887105,4.03709641 C12.3209685,4.75161243 12.3280646,4.96580573 12.3280646,6.77451515 C12.3280646,8.58322458 12.3212911,8.79741819 12.2887105,9.5119342 C12.2834533,9.94153759 12.2045684,10.3670589 12.0554848,10.7699991 C11.9427937,11.0622054 11.7701638,11.3275762 11.5487096,11.5490303 C11.3272555,11.7704844 11.0618847,11.9431143 10.7696783,12.0558054 C10.3667381,12.204889 9.94121668,12.2837739 9.51161323,12.289031 C8.79741966,12.3212891 8.58322602,12.3283852 6.77419376,12.3283852 C4.96516151,12.3283852 4.75096787,12.3216117 4.0367743,12.289031 C3.60717085,12.2837739 3.18165009,12.204889 2.77870987,12.0558054 C2.48650345,11.9431143 2.22113174,11.7704844 1.9996776,11.5490303 C1.77822346,11.3275762 1.60559433,11.0622054 1.4929032,10.7699991 C1.34381955,10.3670589 1.26493466,9.94153759 1.25967753,9.5119342 C1.22741946,8.79741819 1.22032262,8.58322458 1.22032262,6.77451515 C1.22032262,4.96580573 1.22709688,4.75161243 1.25967753,4.03709641 C1.26493466,3.60749302 1.34381955,3.18197201 1.4929032,2.77903186 C1.60559433,2.48682548 1.77822346,2.22145381 1.9996776,2 C2.22113174,1.77854559 2.48650345,1.6059168 2.77870987,1.49322569 C3.18165009,1.34414206 3.60717085,1.26525703 4.0367743,1.2599999 C4.75129043,1.22774183 4.96548407,1.22064499 6.77419376,1.22064499 L6.77419376,1.22064499 C8.58290346,1.22064499 8.7970971,1.22741925 9.51161323,1.2599999 Z M3.98129045,0.0406451331 C3.41904774,0.0518283319 2.86277322,0.158284057 2.33612899,0.355483905 C1.88435334,0.5256986 1.47515902,0.792440044 1.13709684,1.13709667 C0.79212895,1.47528193 0.525159256,1.8847088 0.35483869,2.33677406 C0.157638812,2.86341822 0.0511832251,3.41969234 0.0400000247,3.98193497 C0.00774195863,4.70387034 0,4.93548335 0,6.77419275 C0,8.61290215 0.00774191296,8.84451539 0.0406451392,9.56709595 C0.0518283397,10.1293386 0.158284081,10.6856124 0.355483959,11.2122566 C0.525615597,11.6642629 0.792361869,12.0736855 1.13709684,12.4119344 C1.47534583,12.7566693 1.88476799,13.0234157 2.33677441,13.1935473 C2.86341865,13.3907472 3.41969286,13.4972021 3.98193557,13.5083853 C4.70451624,13.5406434 4.93516169,13.5490303 6.77483919,13.5490303 C8.61451669,13.5490303 8.84516152,13.5412885 9.56774219,13.5083853 C10.1299849,13.4972021 10.6862588,13.3907472 11.212903,13.1935473 C11.6627654,13.0191698 12.0712861,12.7528276 12.4123374,12.4115542 C12.7533887,12.0702807 13.0194648,11.6615875 13.1935493,11.2116117 C13.3907492,10.6849676 13.4972041,10.1286925 13.5083873,9.56644991 C13.5406454,8.84451454 13.5483875,8.61290215 13.5483875,6.77419275 C13.5483875,4.93548335 13.5406458,4.70387042 13.5077425,3.98128985 C13.4965593,3.41904723 13.3901031,2.8627728 13.1929033,2.33612864 C13.0227716,1.88412229 12.7560252,1.47470034 12.4112902,1.1364514 C12.0730412,0.791716482 11.6636198,0.52497025 11.2116134,0.354838637 C10.6849692,0.157638789 10.1286941,0.0511832174 9.56645135,0.0400000187 C8.84451587,0.00774195747 8.61290344,0 6.77419376,0 C4.93548409,0 4.70387112,0.0077419118 3.98129045,0.0406451331 Z" id="Vector"></path>
                            <path d="M4.84194201,3.88314346 C4.26987113,4.26538898 3.82399647,4.80868915 3.56070117,5.44434017 C3.29740586,6.0799912 3.22851559,6.77944326 3.36274238,7.45424676 C3.49696916,8.12905026 3.82828459,8.74889698 4.31479085,9.2354032 C4.80129711,9.72190942 5.42114388,10.0532251 6.09594744,10.1874519 C6.77075101,10.3216786 7.47020313,10.2527878 8.10585421,9.98949249 C8.74150529,9.7261972 9.2848052,9.28032291 9.66705075,8.70825208 C10.0492963,8.13618125 10.2533193,7.46360823 10.2533193,6.77558449 C10.2533193,5.85297343 9.886813,4.96815033 9.23442839,4.31576578 C8.58204379,3.66338124 7.69722092,3.296875 6.77460977,3.296875 C6.08658598,3.296875 5.4140129,3.50089795 4.84194201,3.88314346 Z M5.52009613,8.65309648 C5.14875935,8.40497719 4.85933753,8.0523154 4.68842998,7.63970809 C4.51752243,7.22710079 4.47280522,6.77307933 4.55993314,6.33505775 C4.64706105,5.89703618 4.86212119,5.49468798 5.17791717,5.17889203 C5.49371315,4.86309607 5.89606138,4.64803596 6.334083,4.56090805 C6.77210461,4.47378014 7.22612611,4.51849735 7.63873345,4.68940488 C8.0513408,4.86031242 8.40400231,5.14973421 8.65212162,5.52107096 C8.90024094,5.89240771 9.03267398,6.32898154 9.03267398,6.77558449 C9.03267398,7.37446037 8.79477161,7.94880776 8.37130238,8.37227695 C7.94783314,8.79574615 7.37348571,9.0336488 6.77460977,9.0336488 L6.77460977,9.0336488 C6.32800678,9.0336488 5.89143291,8.90121577 5.52009613,8.65309648 Z" id="Vector"></path>
                            <path d="M10.3900518,3.9715097 C9.94109773,3.9715097 9.57714844,3.60756036 9.57714844,3.15860626 C9.57714844,2.70965215 9.94109773,2.34570312 10.3900518,2.34570312 C10.8390058,2.34570312 11.2029551,2.70965215 11.2029551,3.15860626 C11.2029551,3.60756036 10.8390058,3.9715097 10.3900518,3.9715097 Z" id="Vector"></path>
                        </g>
                    </g>
                </g>
            </g>
        </g>
    </g>
</svg>