<?xml version="1.0" encoding="UTF-8"?>
<svg width="50px" height="50px" viewBox="0 0 50 50" version="1.1" xmlns="http://www.w3.org/2000/svg" xmlns:xlink="http://www.w3.org/1999/xlink">
    <title>whatsapp-square-icon</title>
    <g id="Landing-Page" stroke="none" stroke-width="1" fill="none" fill-rule="evenodd">
        <g id="Landing---Finance-App" transform="translate(-152.000000, -21.000000)">
            <g id="whatsapp-square-icon" transform="translate(152.000000, 21.000000)">
                <path d="M42.7064618,7.26747664 C38.0048096,2.57927194 31.7545929,0 25.0934758,0 C11.3750246,0 0.21019042,11.1132588 0.21019042,24.7743799 C0.21019042,29.1406645 1.35721966,33.4075429 3.53670239,37.1595564 L0,50 L13.2008371,46.5564453 C16.8414785,48.5282342 20.934064,49.5720006 25.0934758,49.5720006 L25.1016845,49.5720006 C38.8215231,49.5720006 50,38.4573611 50,24.7987712 C50,18.1740991 47.4108887,11.9543007 42.7064618,7.26874223 L42.7064618,7.26747664 L42.7064618,7.26747664 Z" id="Path" fill="#62CA63"></path>
                <path d="M25.1015689,45.3918726 C21.3804585,45.3918726 17.7412045,44.3943578 14.5648781,42.5178333 L13.8070133,42.0693543 L5.97285329,44.1145474 L8.06481449,36.5141056 L7.57726059,35.7326614 C5.48923034,32.4616871 4.40648376,28.6744673 4.40648376,24.7771411 C4.40648376,13.420659 13.6881597,4.17598601 25.1125525,4.17598601 C30.6362365,4.17598601 35.8431318,6.32714345 39.7472628,10.2136546 C43.648619,14.1055732 45.8008163,19.2761977 45.8008163,24.7839293 C45.7898327,36.1498458 36.5053819,45.3892264 25.1015689,45.3892264 L25.1015689,45.3918726 Z" id="Path" fill="#FE6531"></path>
                <g id="NEED-HELP" transform="translate(12.571846, 15.795711)" fill="#FFFFFF" fill-rule="nonzero">
                    <g id="Help" transform="translate(0.722601, 11.657808)">
                        <path d="M6.21147562,0.503359566 C6.11705579,0.503359566 6.06984588,0.530205409 6.06984588,0.583897096 C6.05635733,0.583897096 6.03949665,0.597320018 6.01926383,0.624165861 C5.99903101,0.651011705 5.9889146,0.677857548 5.9889146,0.704703392 L5.9889146,5.95977726 C5.9889146,6.00004602 6.01589169,6.04702625 6.06984588,6.10071793 C6.06984588,6.12756378 6.0900787,6.1409867 6.13054434,6.1409867 L6.21147562,6.1409867 L6.73752893,6.20138985 L6.73752893,6.62421188 L4.2286593,6.62421188 L4.2286593,6.20138985 L4.79517825,6.1409867 L4.87610952,6.1409867 C4.91657516,6.1409867 4.93680798,6.12756378 4.93680798,6.10071793 C4.96378508,6.07387209 4.97727362,6.02689186 4.97727362,5.95977726 L4.97727362,3.42284505 L1.78048812,3.42284505 L1.78048812,6.10071793 C1.80746522,6.12756378 1.8614194,6.1409867 1.94235068,6.1409867 L2.50886963,6.20138985 L2.50886963,6.62421188 L0,6.62421188 L0,6.20138985 L0.546286129,6.1409867 C0.627217408,6.1409867 0.667683047,6.12756378 0.667683047,6.10071793 C0.721637232,6.06044917 0.748614325,6.01346894 0.748614325,5.95977726 L0.748614325,0.704703392 C0.748614325,0.677857548 0.738497915,0.651011705 0.718265096,0.624165861 C0.698032276,0.597320018 0.681171593,0.583897096 0.667683047,0.583897096 C0.667683047,0.530205409 0.627217408,0.503359566 0.546286129,0.503359566 L0,0.442956418 L0,0 L2.50886963,0 L2.50886963,0.442956418 L1.94235068,0.503359566 C1.8614194,0.503359566 1.80746522,0.530205409 1.78048812,0.583897096 L1.78048812,2.91948548 L4.97727362,2.91948548 L4.97727362,0.583897096 C4.92331944,0.530205409 4.86262098,0.503359566 4.79517825,0.503359566 L4.2286593,0.442956418 L4.2286593,0 L6.73752893,0 L6.73752893,0.442956418 L6.21147562,0.503359566 Z" id="Path"></path>
                        <path d="M10.6019975,2.85908233 C10.6424631,2.81881357 10.6626959,2.79196772 10.6626959,2.7785448 L10.7840928,2.07384141 L11.2292149,2.07384141 L11.2292149,4.30875788 L10.7840928,4.30875788 L10.6626959,3.60405449 C10.6626959,3.56378572 10.6424631,3.52351696 10.6019975,3.48324819 C10.6019975,3.44297943 10.5547876,3.42284505 10.4603677,3.42284505 L9.02383754,3.42284505 L9.02383754,6.1409867 L11.5124744,6.1409867 C11.55294,6.1409867 11.5799171,6.11414086 11.5934056,6.06044917 C11.6068942,6.04702625 11.6203827,6.03360333 11.6338713,6.0201804 C11.6743369,6.00675748 11.6945697,5.9866231 11.6945697,5.95977726 L11.8766651,5.01346127 L12.3824856,5.01346127 L12.3824856,6.62421188 L7.24334942,6.62421188 L7.24334942,6.20138985 L7.78963555,6.1409867 L7.87056682,6.1409867 C7.89754392,6.1409867 7.92452101,6.11078513 7.9514981,6.05038198 C7.9784752,5.98997883 7.99196374,5.94635433 7.99196374,5.91950849 L7.99196374,0.664434627 C7.99196374,0.651011705 7.9784752,0.620810131 7.9514981,0.573829905 C7.92452101,0.526849679 7.89417178,0.503359566 7.86045041,0.503359566 C7.82672905,0.503359566 7.80312409,0.483225183 7.78963555,0.442956418 L7.24334942,0.402687652 L7.24334942,0 L12.0385277,0 L12.0385277,1.5100787 L11.4720087,1.5100787 L11.3101462,0.664434627 C11.3101462,0.61074294 11.2831691,0.563762713 11.2292149,0.523493948 C11.2292149,0.510071026 11.1954935,0.503359566 11.1280508,0.503359566 L9.02383754,0.503359566 L9.02383754,2.93961986 L10.4603677,2.93961986 C10.5547876,2.93961986 10.6019975,2.91277402 10.6019975,2.85908233 Z" id="Path"></path>
                        <path d="M13.7178517,0.704703392 C13.677386,0.583897096 13.6402925,0.520138218 13.6065712,0.513426757 C13.5728498,0.506715296 13.5425006,0.503359566 13.5155235,0.503359566 L12.9287717,0.442956418 L12.9287717,0 L15.4578742,0 L15.4578742,0.442956418 L14.911588,0.503359566 C14.8441453,0.503359566 14.8036797,0.530205409 14.7901911,0.583897096 C14.763214,0.583897096 14.7497255,0.624165861 14.7497255,0.704703392 L14.7497255,6.1409867 L16.8539387,6.1409867 C16.9078929,6.1409867 16.9416143,6.11749659 16.9551028,6.07051636 C16.9685914,6.02353613 16.9955685,5.9866231 17.0360341,5.95977726 L17.157431,4.79198306 L17.7644156,4.79198306 L17.7644156,6.62421188 L12.9287717,6.62421188 L12.9287717,6.20138985 L13.5155235,6.1409867 C13.5964548,6.1409867 13.6369204,6.13091951 13.6369204,6.11078513 C13.6369204,6.09065074 13.6436647,6.07387209 13.6571532,6.06044917 C13.6976189,6.04702625 13.7178517,6.01346894 13.7178517,5.95977726 L13.7178517,0.704703392 Z" id="Path"></path>
                        <path d="M21.9121436,3.28190437 C21.9930749,3.18794392 22.0638898,3.10405065 22.1245882,3.03022458 C22.1852867,2.95639852 22.2392409,2.84230368 22.2864508,2.68794008 C22.3336607,2.53357648 22.3572657,2.34901131 22.3572657,2.13424456 C22.3572657,1.77182567 22.3370328,1.51679016 22.2965672,1.36913802 C22.1616817,1.14094835 22.0605176,0.973161827 21.9930749,0.865778453 C21.8447009,0.758395079 21.6558612,0.664434627 21.426556,0.583897096 C21.2107392,0.530205409 20.9409683,0.503359566 20.6172432,0.503359566 L20.1518883,0.503359566 L20.1518883,3.60405449 L20.3542165,3.60405449 C20.3811936,3.63090033 20.4418921,3.64432325 20.5363119,3.64432325 L20.6577088,3.64432325 C21.2781819,3.64432325 21.6963269,3.52351696 21.9121436,3.28190437 Z M23.2677425,1.06712228 C23.3486738,1.30873487 23.3891395,1.61075061 23.3891395,1.9731695 C23.3891395,2.33558838 23.3351853,2.63089266 23.2272769,2.85908233 C23.1193685,3.087272 23.0215766,3.24834706 22.933901,3.34230752 C22.8462255,3.43626797 22.7484335,3.53693988 22.6405251,3.64432325 C22.1414489,3.99331922 21.5209758,4.1678172 20.7791057,4.1678172 L20.6172432,4.1678172 C20.563289,4.14097136 20.5160791,4.12754844 20.4756134,4.12754844 C20.3811936,4.12754844 20.3036345,4.12754844 20.242936,4.12754844 C20.1822376,4.12754844 20.1518883,4.11412552 20.1518883,4.08727967 L20.1518883,6.10071793 C20.1788654,6.12756378 20.2328196,6.1409867 20.3137509,6.1409867 L20.9612011,6.20138985 L20.9612011,6.62421188 L18.3714002,6.62421188 L18.3714002,6.20138985 L18.9176863,6.1409867 C18.9986176,6.1409867 19.0390832,6.13091951 19.0390832,6.11078513 C19.0390832,6.09065074 19.0458275,6.07387209 19.0593161,6.06044917 C19.0997817,6.04702625 19.1200145,6.01346894 19.1200145,5.95977726 L19.1200145,0.704703392 C19.1200145,0.570474174 19.0525718,0.503359566 18.9176863,0.503359566 L18.2904689,0.442956418 L18.2904689,0 L20.6577088,0 C21.0218996,0 21.4400445,0.0335573044 21.9121436,0.100671913 C22.2088916,0.181209444 22.4786626,0.295304278 22.7214564,0.442956418 C22.9372732,0.6174544 23.1193685,0.825509688 23.2677425,1.06712228 Z" id="Shape"></path>
                    </g>
                    <g id="Need">
                        <path d="M5.92821614,0.503359566 C5.84728486,0.503359566 5.80681923,0.557051253 5.80681923,0.664434627 L5.80681923,6.62421188 L5.0582049,6.62421188 L1.35559891,1.10739104 L1.35559891,5.91950849 C1.35559891,5.9866231 1.36908746,6.04702625 1.39606455,6.10071793 C1.43653019,6.12756378 1.49722865,6.1409867 1.57815993,6.1409867 L2.10421324,6.20138985 L2.10421324,6.62421188 L0,6.62421188 L0,6.20138985 L0.586751768,6.1409867 C0.667683047,6.1409867 0.708148686,6.12756378 0.708148686,6.10071793 C0.762102872,6.00675748 0.789079964,5.94635433 0.789079964,5.91950849 L0.789079964,0.664434627 C0.789079964,0.651011705 0.762102872,0.604031479 0.708148686,0.523493948 C0.708148686,0.469802261 0.667683047,0.442956418 0.586751768,0.442956418 L0,0.402687652 L0,0 L1.92211786,0 L1.92211786,0.281881357 L5.24030028,5.2148051 L5.24030028,0.704703392 C5.24030028,0.624165861 5.22681173,0.570474174 5.19983464,0.543628331 C5.17285754,0.516782487 5.11215909,0.503359566 5.01773926,0.503359566 L4.49168595,0.442956418 L4.49168595,0 L6.59589919,0 L6.59589919,0.442956418 L6.02938024,0.503359566 L6.02938024,0.442956418 C6.00240315,0.483225183 5.96868178,0.503359566 5.92821614,0.503359566 Z" id="Path"></path>
                        <path d="M10.541299,2.85908233 C10.5817647,2.81881357 10.6019975,2.79196772 10.6019975,2.7785448 L10.7233944,2.07384141 L11.1685164,2.07384141 L11.1685164,4.30875788 L10.7233944,4.30875788 L10.6019975,3.60405449 C10.6019975,3.56378572 10.5817647,3.52351696 10.541299,3.48324819 C10.541299,3.44297943 10.4940891,3.42284505 10.3996693,3.42284505 L8.96313908,3.42284505 L8.96313908,6.1409867 L11.4517759,6.1409867 C11.4922415,6.1409867 11.5192186,6.11414086 11.5327072,6.06044917 C11.5461957,6.04702625 11.5596843,6.03360333 11.5731728,6.0201804 C11.6136385,6.00675748 11.6338713,5.9866231 11.6338713,5.95977726 L11.8159666,5.01346127 L12.3217871,5.01346127 L12.3217871,6.62421188 L7.18265096,6.62421188 L7.18265096,6.20138985 L7.72893709,6.1409867 L7.80986837,6.1409867 C7.83684546,6.1409867 7.86382255,6.11078513 7.89079964,6.05038198 C7.91777674,5.98997883 7.93126528,5.94635433 7.93126528,5.91950849 L7.93126528,0.664434627 C7.93126528,0.651011705 7.91777674,0.620810131 7.89079964,0.573829905 C7.86382255,0.526849679 7.83347332,0.503359566 7.79975196,0.503359566 C7.76603059,0.503359566 7.74242563,0.483225183 7.72893709,0.442956418 L7.18265096,0.402687652 L7.18265096,0 L11.9778292,0 L11.9778292,1.5100787 L11.4113103,1.5100787 L11.2494477,0.664434627 C11.2494477,0.61074294 11.2224706,0.563762713 11.1685164,0.523493948 C11.1685164,0.510071026 11.1347951,0.503359566 11.0673523,0.503359566 L8.96313908,0.503359566 L8.96313908,2.93961986 L10.3996693,2.93961986 C10.4940891,2.93961986 10.541299,2.91277402 10.541299,2.85908233 Z" id="Path"></path>
                        <path d="M16.267187,2.85908233 C16.3076526,2.81881357 16.3278854,2.79196772 16.3278854,2.7785448 L16.4492823,2.07384141 L16.8944044,2.07384141 L16.8944044,4.30875788 L16.4492823,4.30875788 L16.3278854,3.60405449 C16.3278854,3.56378572 16.3076526,3.52351696 16.267187,3.48324819 C16.267187,3.44297943 16.219977,3.42284505 16.1255572,3.42284505 L14.689027,3.42284505 L14.689027,6.1409867 L17.1776638,6.1409867 C17.2181295,6.1409867 17.2451066,6.11414086 17.2585951,6.06044917 C17.2720837,6.04702625 17.2855722,6.03360333 17.2990608,6.0201804 C17.3395264,6.00675748 17.3597592,5.9866231 17.3597592,5.95977726 L17.5418546,5.01346127 L18.0476751,5.01346127 L18.0476751,6.62421188 L12.9085389,6.62421188 L12.9085389,6.20138985 L13.454825,6.1409867 L13.5357563,6.1409867 C13.5627334,6.1409867 13.5897105,6.11078513 13.6166876,6.05038198 C13.6436647,5.98997883 13.6571532,5.94635433 13.6571532,5.91950849 L13.6571532,0.664434627 C13.6571532,0.651011705 13.6436647,0.620810131 13.6166876,0.573829905 C13.5897105,0.526849679 13.5593613,0.503359566 13.5256399,0.503359566 C13.4919185,0.503359566 13.4683136,0.483225183 13.454825,0.442956418 L12.9085389,0.402687652 L12.9085389,0 L17.7037171,0 L17.7037171,1.5100787 L17.1371982,1.5100787 L16.9753356,0.664434627 C16.9753356,0.61074294 16.9483586,0.563762713 16.8944044,0.523493948 C16.8944044,0.510071026 16.860683,0.503359566 16.7932403,0.503359566 L14.689027,0.503359566 L14.689027,2.93961986 L16.1255572,2.93961986 C16.219977,2.93961986 16.267187,2.91277402 16.267187,2.85908233 Z" id="Path"></path>
                        <path d="M23.0451815,5.49668646 C23.2879754,5.22822802 23.4565822,4.92285655 23.551002,4.58057205 C23.6454218,4.23828754 23.6926318,3.87922439 23.6926318,3.50338258 C23.6926318,2.88592818 23.6386776,2.38928007 23.5307692,2.01343826 C23.4498379,1.63759645 23.2677425,1.34900364 22.9844831,1.14765981 C22.8630861,0.946315983 22.6304087,0.788596653 22.2864508,0.674501818 C21.9424929,0.560406983 21.5614414,0.503359566 21.1432965,0.503359566 L20.414915,0.503359566 L20.414915,6.1409867 L21.1837621,6.1409867 C21.6019071,6.1409867 21.9593535,6.08058355 22.2561016,5.95977726 C22.5123839,5.89266265 22.7754106,5.73829905 23.0451815,5.49668646 Z M23.773563,0.805375305 C24.1242652,1.06041082 24.390664,1.39933959 24.5727594,1.82216163 C24.7548548,2.24498366 24.8459025,2.67116143 24.8459025,3.10069492 C24.8459025,4.04029945 24.6638071,4.77184868 24.2996163,5.29534263 C23.8275172,5.9530658 23.2340212,6.34904199 22.5191282,6.4832712 C22.1954031,6.57723166 21.8109795,6.62421188 21.3658575,6.62421188 L18.6344269,6.62421188 L18.6344269,6.20138985 L19.180713,6.1409867 C19.2616443,6.1409867 19.3155984,6.12756378 19.3425755,6.10071793 C19.3695526,6.07387209 19.3830412,6.02689186 19.3830412,5.95977726 L19.3830412,0.624165861 C19.3830412,0.597320018 19.3695526,0.583897096 19.3425755,0.583897096 C19.2751328,0.530205409 19.2211786,0.503359566 19.180713,0.503359566 L18.6344269,0.442956418 L18.6344269,0 L21.1837621,0 C21.6288842,0 22.1077275,0.0805375305 22.6202923,0.241612591 C23.1328571,0.362418887 23.5172806,0.550339792 23.773563,0.805375305 Z" id="Shape"></path>
                    </g>
                </g>
            </g>
        </g>
    </g>
</svg>