<?xml version="1.0" encoding="UTF-8"?>
<svg width="60px" height="60px" viewBox="0 0 60 60" version="1.1" xmlns="http://www.w3.org/2000/svg" xmlns:xlink="http://www.w3.org/1999/xlink">
    <title>onelinkto_kury62</title>
    <g id="Landing-Page" stroke="none" stroke-width="1" fill="none" fill-rule="evenodd">
        <g id="Landing---Finance-App" transform="translate(-599.000000, -511.000000)" fill-rule="nonzero">
            <g id="Content" transform="translate(152.000000, 231.000000)">
                <g id="onelinkto_kury62" transform="translate(447.000000, 280.000000)">
                    <rect id="Rectangle" fill="#FFFFFF" x="0" y="0" width="60" height="60"></rect>
                    <path d="M2,2 L4.24,2 L4.24,4.24 L2,4.24 L2,2 Z M4.24,2 L6.48,2 L6.48,4.24 L4.24,4.24 L4.24,2 Z M6.48,2 L8.72,2 L8.72,4.24 L6.48,4.24 L6.48,2 Z M8.72,2 L10.96,2 L10.96,4.24 L8.72,4.24 L8.72,2 Z M10.96,2 L13.2,2 L13.2,4.24 L10.96,4.24 L10.96,2 Z M13.2,2 L15.44,2 L15.44,4.24 L13.2,4.24 L13.2,2 Z M15.44,2 L17.68,2 L17.68,4.24 L15.44,4.24 L15.44,2 Z M24.4,2 L26.64,2 L26.64,4.24 L24.4,4.24 L24.4,2 Z M28.88,2 L31.12,2 L31.12,4.24 L28.88,4.24 L28.88,2 Z M31.12,2 L33.36,2 L33.36,4.24 L31.12,4.24 L31.12,2 Z M37.84,2 L40.08,2 L40.08,4.24 L37.84,4.24 L37.84,2 Z M42.32,2 L44.56,2 L44.56,4.24 L42.32,4.24 L42.32,2 Z M44.56,2 L46.8,2 L46.8,4.24 L44.56,4.24 L44.56,2 Z M46.8,2 L49.04,2 L49.04,4.24 L46.8,4.24 L46.8,2 Z M49.04,2 L51.28,2 L51.28,4.24 L49.04,4.24 L49.04,2 Z M51.28,2 L53.52,2 L53.52,4.24 L51.28,4.24 L51.28,2 Z M53.52,2 L55.76,2 L55.76,4.24 L53.52,4.24 L53.52,2 Z M55.76,2 L58,2 L58,4.24 L55.76,4.24 L55.76,2 Z M2,4.24 L4.24,4.24 L4.24,6.48 L2,6.48 L2,4.24 Z M15.44,4.24 L17.68,4.24 L17.68,6.48 L15.44,6.48 L15.44,4.24 Z M19.92,4.24 L22.16,4.24 L22.16,6.48 L19.92,6.48 L19.92,4.24 Z M24.4,4.24 L26.64,4.24 L26.64,6.48 L24.4,6.48 L24.4,4.24 Z M31.12,4.24 L33.36,4.24 L33.36,6.48 L31.12,6.48 L31.12,4.24 Z M33.36,4.24 L35.6,4.24 L35.6,6.48 L33.36,6.48 L33.36,4.24 Z M35.6,4.24 L37.84,4.24 L37.84,6.48 L35.6,6.48 L35.6,4.24 Z M42.32,4.24 L44.56,4.24 L44.56,6.48 L42.32,6.48 L42.32,4.24 Z M55.76,4.24 L58,4.24 L58,6.48 L55.76,6.48 L55.76,4.24 Z M2,6.48 L4.24,6.48 L4.24,8.72 L2,8.72 L2,6.48 Z M6.48,6.48 L8.72,6.48 L8.72,8.72 L6.48,8.72 L6.48,6.48 Z M8.72,6.48 L10.96,6.48 L10.96,8.72 L8.72,8.72 L8.72,6.48 Z M10.96,6.48 L13.2,6.48 L13.2,8.72 L10.96,8.72 L10.96,6.48 Z M15.44,6.48 L17.68,6.48 L17.68,8.72 L15.44,8.72 L15.44,6.48 Z M28.88,6.48 L31.12,6.48 L31.12,8.72 L28.88,8.72 L28.88,6.48 Z M33.36,6.48 L35.6,6.48 L35.6,8.72 L33.36,8.72 L33.36,6.48 Z M35.6,6.48 L37.84,6.48 L37.84,8.72 L35.6,8.72 L35.6,6.48 Z M37.84,6.48 L40.08,6.48 L40.08,8.72 L37.84,8.72 L37.84,6.48 Z M42.32,6.48 L44.56,6.48 L44.56,8.72 L42.32,8.72 L42.32,6.48 Z M46.8,6.48 L49.04,6.48 L49.04,8.72 L46.8,8.72 L46.8,6.48 Z M49.04,6.48 L51.28,6.48 L51.28,8.72 L49.04,8.72 L49.04,6.48 Z M51.28,6.48 L53.52,6.48 L53.52,8.72 L51.28,8.72 L51.28,6.48 Z M55.76,6.48 L58,6.48 L58,8.72 L55.76,8.72 L55.76,6.48 Z M2,8.72 L4.24,8.72 L4.24,10.96 L2,10.96 L2,8.72 Z M6.48,8.72 L8.72,8.72 L8.72,10.96 L6.48,10.96 L6.48,8.72 Z M8.72,8.72 L10.96,8.72 L10.96,10.96 L8.72,10.96 L8.72,8.72 Z M10.96,8.72 L13.2,8.72 L13.2,10.96 L10.96,10.96 L10.96,8.72 Z M15.44,8.72 L17.68,8.72 L17.68,10.96 L15.44,10.96 L15.44,8.72 Z M19.92,8.72 L22.16,8.72 L22.16,10.96 L19.92,10.96 L19.92,8.72 Z M22.16,8.72 L24.4,8.72 L24.4,10.96 L22.16,10.96 L22.16,8.72 Z M24.4,8.72 L26.64,8.72 L26.64,10.96 L24.4,10.96 L24.4,8.72 Z M28.88,8.72 L31.12,8.72 L31.12,10.96 L28.88,10.96 L28.88,8.72 Z M31.12,8.72 L33.36,8.72 L33.36,10.96 L31.12,10.96 L31.12,8.72 Z M35.6,8.72 L37.84,8.72 L37.84,10.96 L35.6,10.96 L35.6,8.72 Z M37.84,8.72 L40.08,8.72 L40.08,10.96 L37.84,10.96 L37.84,8.72 Z M42.32,8.72 L44.56,8.72 L44.56,10.96 L42.32,10.96 L42.32,8.72 Z M46.8,8.72 L49.04,8.72 L49.04,10.96 L46.8,10.96 L46.8,8.72 Z M49.04,8.72 L51.28,8.72 L51.28,10.96 L49.04,10.96 L49.04,8.72 Z M51.28,8.72 L53.52,8.72 L53.52,10.96 L51.28,10.96 L51.28,8.72 Z M55.76,8.72 L58,8.72 L58,10.96 L55.76,10.96 L55.76,8.72 Z M2,10.96 L4.24,10.96 L4.24,13.2 L2,13.2 L2,10.96 Z M6.48,10.96 L8.72,10.96 L8.72,13.2 L6.48,13.2 L6.48,10.96 Z M8.72,10.96 L10.96,10.96 L10.96,13.2 L8.72,13.2 L8.72,10.96 Z M10.96,10.96 L13.2,10.96 L13.2,13.2 L10.96,13.2 L10.96,10.96 Z M15.44,10.96 L17.68,10.96 L17.68,13.2 L15.44,13.2 L15.44,10.96 Z M22.16,10.96 L24.4,10.96 L24.4,13.2 L22.16,13.2 L22.16,10.96 Z M31.12,10.96 L33.36,10.96 L33.36,13.2 L31.12,13.2 L31.12,10.96 Z M37.84,10.96 L40.08,10.96 L40.08,13.2 L37.84,13.2 L37.84,10.96 Z M42.32,10.96 L44.56,10.96 L44.56,13.2 L42.32,13.2 L42.32,10.96 Z M46.8,10.96 L49.04,10.96 L49.04,13.2 L46.8,13.2 L46.8,10.96 Z M49.04,10.96 L51.28,10.96 L51.28,13.2 L49.04,13.2 L49.04,10.96 Z M51.28,10.96 L53.52,10.96 L53.52,13.2 L51.28,13.2 L51.28,10.96 Z M55.76,10.96 L58,10.96 L58,13.2 L55.76,13.2 L55.76,10.96 Z M2,13.2 L4.24,13.2 L4.24,15.44 L2,15.44 L2,13.2 Z M15.44,13.2 L17.68,13.2 L17.68,15.44 L15.44,15.44 L15.44,13.2 Z M19.92,13.2 L22.16,13.2 L22.16,15.44 L19.92,15.44 L19.92,13.2 Z M22.16,13.2 L24.4,13.2 L24.4,15.44 L22.16,15.44 L22.16,13.2 Z M26.64,13.2 L28.88,13.2 L28.88,15.44 L26.64,15.44 L26.64,13.2 Z M28.88,13.2 L31.12,13.2 L31.12,15.44 L28.88,15.44 L28.88,13.2 Z M31.12,13.2 L33.36,13.2 L33.36,15.44 L31.12,15.44 L31.12,13.2 Z M33.36,13.2 L35.6,13.2 L35.6,15.44 L33.36,15.44 L33.36,13.2 Z M35.6,13.2 L37.84,13.2 L37.84,15.44 L35.6,15.44 L35.6,13.2 Z M42.32,13.2 L44.56,13.2 L44.56,15.44 L42.32,15.44 L42.32,13.2 Z M55.76,13.2 L58,13.2 L58,15.44 L55.76,15.44 L55.76,13.2 Z M2,15.44 L4.24,15.44 L4.24,17.68 L2,17.68 L2,15.44 Z M4.24,15.44 L6.48,15.44 L6.48,17.68 L4.24,17.68 L4.24,15.44 Z M6.48,15.44 L8.72,15.44 L8.72,17.68 L6.48,17.68 L6.48,15.44 Z M8.72,15.44 L10.96,15.44 L10.96,17.68 L8.72,17.68 L8.72,15.44 Z M10.96,15.44 L13.2,15.44 L13.2,17.68 L10.96,17.68 L10.96,15.44 Z M13.2,15.44 L15.44,15.44 L15.44,17.68 L13.2,17.68 L13.2,15.44 Z M15.44,15.44 L17.68,15.44 L17.68,17.68 L15.44,17.68 L15.44,15.44 Z M19.92,15.44 L22.16,15.44 L22.16,17.68 L19.92,17.68 L19.92,15.44 Z M24.4,15.44 L26.64,15.44 L26.64,17.68 L24.4,17.68 L24.4,15.44 Z M28.88,15.44 L31.12,15.44 L31.12,17.68 L28.88,17.68 L28.88,15.44 Z M33.36,15.44 L35.6,15.44 L35.6,17.68 L33.36,17.68 L33.36,15.44 Z M37.84,15.44 L40.08,15.44 L40.08,17.68 L37.84,17.68 L37.84,15.44 Z M42.32,15.44 L44.56,15.44 L44.56,17.68 L42.32,17.68 L42.32,15.44 Z M44.56,15.44 L46.8,15.44 L46.8,17.68 L44.56,17.68 L44.56,15.44 Z M46.8,15.44 L49.04,15.44 L49.04,17.68 L46.8,17.68 L46.8,15.44 Z M49.04,15.44 L51.28,15.44 L51.28,17.68 L49.04,17.68 L49.04,15.44 Z M51.28,15.44 L53.52,15.44 L53.52,17.68 L51.28,17.68 L51.28,15.44 Z M53.52,15.44 L55.76,15.44 L55.76,17.68 L53.52,17.68 L53.52,15.44 Z M55.76,15.44 L58,15.44 L58,17.68 L55.76,17.68 L55.76,15.44 Z M22.16,17.68 L24.4,17.68 L24.4,19.92 L22.16,19.92 L22.16,17.68 Z M24.4,17.68 L26.64,17.68 L26.64,19.92 L24.4,19.92 L24.4,17.68 Z M26.64,17.68 L28.88,17.68 L28.88,19.92 L26.64,19.92 L26.64,17.68 Z M33.36,17.68 L35.6,17.68 L35.6,19.92 L33.36,19.92 L33.36,17.68 Z M37.84,17.68 L40.08,17.68 L40.08,19.92 L37.84,19.92 L37.84,17.68 Z M2,19.92 L4.24,19.92 L4.24,22.16 L2,22.16 L2,19.92 Z M4.24,19.92 L6.48,19.92 L6.48,22.16 L4.24,22.16 L4.24,19.92 Z M6.48,19.92 L8.72,19.92 L8.72,22.16 L6.48,22.16 L6.48,19.92 Z M8.72,19.92 L10.96,19.92 L10.96,22.16 L8.72,22.16 L8.72,19.92 Z M10.96,19.92 L13.2,19.92 L13.2,22.16 L10.96,22.16 L10.96,19.92 Z M15.44,19.92 L17.68,19.92 L17.68,22.16 L15.44,22.16 L15.44,19.92 Z M17.68,19.92 L19.92,19.92 L19.92,22.16 L17.68,22.16 L17.68,19.92 Z M19.92,19.92 L22.16,19.92 L22.16,22.16 L19.92,22.16 L19.92,19.92 Z M22.16,19.92 L24.4,19.92 L24.4,22.16 L22.16,22.16 L22.16,19.92 Z M26.64,19.92 L28.88,19.92 L28.88,22.16 L26.64,22.16 L26.64,19.92 Z M31.12,19.92 L33.36,19.92 L33.36,22.16 L31.12,22.16 L31.12,19.92 Z M33.36,19.92 L35.6,19.92 L35.6,22.16 L33.36,22.16 L33.36,19.92 Z M40.08,19.92 L42.32,19.92 L42.32,22.16 L40.08,22.16 L40.08,19.92 Z M44.56,19.92 L46.8,19.92 L46.8,22.16 L44.56,22.16 L44.56,19.92 Z M49.04,19.92 L51.28,19.92 L51.28,22.16 L49.04,22.16 L49.04,19.92 Z M53.52,19.92 L55.76,19.92 L55.76,22.16 L53.52,22.16 L53.52,19.92 Z M2,22.16 L4.24,22.16 L4.24,24.4 L2,24.4 L2,22.16 Z M4.24,22.16 L6.48,22.16 L6.48,24.4 L4.24,24.4 L4.24,22.16 Z M8.72,22.16 L10.96,22.16 L10.96,24.4 L8.72,24.4 L8.72,22.16 Z M17.68,22.16 L19.92,22.16 L19.92,24.4 L17.68,24.4 L17.68,22.16 Z M24.4,22.16 L26.64,22.16 L26.64,24.4 L24.4,24.4 L24.4,22.16 Z M28.88,22.16 L31.12,22.16 L31.12,24.4 L28.88,24.4 L28.88,22.16 Z M31.12,22.16 L33.36,22.16 L33.36,24.4 L31.12,24.4 L31.12,22.16 Z M44.56,22.16 L46.8,22.16 L46.8,24.4 L44.56,24.4 L44.56,22.16 Z M53.52,22.16 L55.76,22.16 L55.76,24.4 L53.52,24.4 L53.52,22.16 Z M2,24.4 L4.24,24.4 L4.24,26.64 L2,26.64 L2,24.4 Z M4.24,24.4 L6.48,24.4 L6.48,26.64 L4.24,26.64 L4.24,24.4 Z M10.96,24.4 L13.2,24.4 L13.2,26.64 L10.96,26.64 L10.96,24.4 Z M15.44,24.4 L17.68,24.4 L17.68,26.64 L15.44,26.64 L15.44,24.4 Z M19.92,24.4 L22.16,24.4 L22.16,26.64 L19.92,26.64 L19.92,24.4 Z M24.4,24.4 L26.64,24.4 L26.64,26.64 L24.4,26.64 L24.4,24.4 Z M31.12,24.4 L33.36,24.4 L33.36,26.64 L31.12,26.64 L31.12,24.4 Z M35.6,24.4 L37.84,24.4 L37.84,26.64 L35.6,26.64 L35.6,24.4 Z M37.84,24.4 L40.08,24.4 L40.08,26.64 L37.84,26.64 L37.84,24.4 Z M40.08,24.4 L42.32,24.4 L42.32,26.64 L40.08,26.64 L40.08,24.4 Z M44.56,24.4 L46.8,24.4 L46.8,26.64 L44.56,26.64 L44.56,24.4 Z M46.8,24.4 L49.04,24.4 L49.04,26.64 L46.8,26.64 L46.8,24.4 Z M49.04,24.4 L51.28,24.4 L51.28,26.64 L49.04,26.64 L49.04,24.4 Z M53.52,24.4 L55.76,24.4 L55.76,26.64 L53.52,26.64 L53.52,24.4 Z M55.76,24.4 L58,24.4 L58,26.64 L55.76,26.64 L55.76,24.4 Z M2,26.64 L4.24,26.64 L4.24,28.88 L2,28.88 L2,26.64 Z M4.24,26.64 L6.48,26.64 L6.48,28.88 L4.24,28.88 L4.24,26.64 Z M6.48,26.64 L8.72,26.64 L8.72,28.88 L6.48,28.88 L6.48,26.64 Z M8.72,26.64 L10.96,26.64 L10.96,28.88 L8.72,28.88 L8.72,26.64 Z M10.96,26.64 L13.2,26.64 L13.2,28.88 L10.96,28.88 L10.96,26.64 Z M19.92,26.64 L22.16,26.64 L22.16,28.88 L19.92,28.88 L19.92,26.64 Z M28.88,26.64 L31.12,26.64 L31.12,28.88 L28.88,28.88 L28.88,26.64 Z M33.36,26.64 L35.6,26.64 L35.6,28.88 L33.36,28.88 L33.36,26.64 Z M44.56,26.64 L46.8,26.64 L46.8,28.88 L44.56,28.88 L44.56,26.64 Z M46.8,26.64 L49.04,26.64 L49.04,28.88 L46.8,28.88 L46.8,26.64 Z M55.76,26.64 L58,26.64 L58,28.88 L55.76,28.88 L55.76,26.64 Z M4.24,28.88 L6.48,28.88 L6.48,31.12 L4.24,31.12 L4.24,28.88 Z M8.72,28.88 L10.96,28.88 L10.96,31.12 L8.72,31.12 L8.72,28.88 Z M10.96,28.88 L13.2,28.88 L13.2,31.12 L10.96,31.12 L10.96,28.88 Z M13.2,28.88 L15.44,28.88 L15.44,31.12 L13.2,31.12 L13.2,28.88 Z M15.44,28.88 L17.68,28.88 L17.68,31.12 L15.44,31.12 L15.44,28.88 Z M19.92,28.88 L22.16,28.88 L22.16,31.12 L19.92,31.12 L19.92,28.88 Z M22.16,28.88 L24.4,28.88 L24.4,31.12 L22.16,31.12 L22.16,28.88 Z M24.4,28.88 L26.64,28.88 L26.64,31.12 L24.4,31.12 L24.4,28.88 Z M28.88,28.88 L31.12,28.88 L31.12,31.12 L28.88,31.12 L28.88,28.88 Z M31.12,28.88 L33.36,28.88 L33.36,31.12 L31.12,31.12 L31.12,28.88 Z M33.36,28.88 L35.6,28.88 L35.6,31.12 L33.36,31.12 L33.36,28.88 Z M40.08,28.88 L42.32,28.88 L42.32,31.12 L40.08,31.12 L40.08,28.88 Z M42.32,28.88 L44.56,28.88 L44.56,31.12 L42.32,31.12 L42.32,28.88 Z M46.8,28.88 L49.04,28.88 L49.04,31.12 L46.8,31.12 L46.8,28.88 Z M51.28,28.88 L53.52,28.88 L53.52,31.12 L51.28,31.12 L51.28,28.88 Z M53.52,28.88 L55.76,28.88 L55.76,31.12 L53.52,31.12 L53.52,28.88 Z M55.76,28.88 L58,28.88 L58,31.12 L55.76,31.12 L55.76,28.88 Z M2,31.12 L4.24,31.12 L4.24,33.36 L2,33.36 L2,31.12 Z M4.24,31.12 L6.48,31.12 L6.48,33.36 L4.24,33.36 L4.24,31.12 Z M10.96,31.12 L13.2,31.12 L13.2,33.36 L10.96,33.36 L10.96,31.12 Z M13.2,31.12 L15.44,31.12 L15.44,33.36 L13.2,33.36 L13.2,31.12 Z M33.36,31.12 L35.6,31.12 L35.6,33.36 L33.36,33.36 L33.36,31.12 Z M37.84,31.12 L40.08,31.12 L40.08,33.36 L37.84,33.36 L37.84,31.12 Z M44.56,31.12 L46.8,31.12 L46.8,33.36 L44.56,33.36 L44.56,31.12 Z M49.04,31.12 L51.28,31.12 L51.28,33.36 L49.04,33.36 L49.04,31.12 Z M53.52,31.12 L55.76,31.12 L55.76,33.36 L53.52,33.36 L53.52,31.12 Z M2,33.36 L4.24,33.36 L4.24,35.6 L2,35.6 L2,33.36 Z M6.48,33.36 L8.72,33.36 L8.72,35.6 L6.48,35.6 L6.48,33.36 Z M13.2,33.36 L15.44,33.36 L15.44,35.6 L13.2,35.6 L13.2,33.36 Z M15.44,33.36 L17.68,33.36 L17.68,35.6 L15.44,35.6 L15.44,33.36 Z M22.16,33.36 L24.4,33.36 L24.4,35.6 L22.16,35.6 L22.16,33.36 Z M24.4,33.36 L26.64,33.36 L26.64,35.6 L24.4,35.6 L24.4,33.36 Z M26.64,33.36 L28.88,33.36 L28.88,35.6 L26.64,35.6 L26.64,33.36 Z M28.88,33.36 L31.12,33.36 L31.12,35.6 L28.88,35.6 L28.88,33.36 Z M33.36,33.36 L35.6,33.36 L35.6,35.6 L33.36,35.6 L33.36,33.36 Z M35.6,33.36 L37.84,33.36 L37.84,35.6 L35.6,35.6 L35.6,33.36 Z M40.08,33.36 L42.32,33.36 L42.32,35.6 L40.08,35.6 L40.08,33.36 Z M42.32,33.36 L44.56,33.36 L44.56,35.6 L42.32,35.6 L42.32,33.36 Z M44.56,33.36 L46.8,33.36 L46.8,35.6 L44.56,35.6 L44.56,33.36 Z M46.8,33.36 L49.04,33.36 L49.04,35.6 L46.8,35.6 L46.8,33.36 Z M49.04,33.36 L51.28,33.36 L51.28,35.6 L49.04,35.6 L49.04,33.36 Z M53.52,33.36 L55.76,33.36 L55.76,35.6 L53.52,35.6 L53.52,33.36 Z M55.76,33.36 L58,33.36 L58,35.6 L55.76,35.6 L55.76,33.36 Z M2,35.6 L4.24,35.6 L4.24,37.84 L2,37.84 L2,35.6 Z M6.48,35.6 L8.72,35.6 L8.72,37.84 L6.48,37.84 L6.48,35.6 Z M8.72,35.6 L10.96,35.6 L10.96,37.84 L8.72,37.84 L8.72,35.6 Z M10.96,35.6 L13.2,35.6 L13.2,37.84 L10.96,37.84 L10.96,35.6 Z M19.92,35.6 L22.16,35.6 L22.16,37.84 L19.92,37.84 L19.92,35.6 Z M22.16,35.6 L24.4,35.6 L24.4,37.84 L22.16,37.84 L22.16,35.6 Z M26.64,35.6 L28.88,35.6 L28.88,37.84 L26.64,37.84 L26.64,35.6 Z M33.36,35.6 L35.6,35.6 L35.6,37.84 L33.36,37.84 L33.36,35.6 Z M37.84,35.6 L40.08,35.6 L40.08,37.84 L37.84,37.84 L37.84,35.6 Z M40.08,35.6 L42.32,35.6 L42.32,37.84 L40.08,37.84 L40.08,35.6 Z M42.32,35.6 L44.56,35.6 L44.56,37.84 L42.32,37.84 L42.32,35.6 Z M44.56,35.6 L46.8,35.6 L46.8,37.84 L44.56,37.84 L44.56,35.6 Z M46.8,35.6 L49.04,35.6 L49.04,37.84 L46.8,37.84 L46.8,35.6 Z M55.76,35.6 L58,35.6 L58,37.84 L55.76,37.84 L55.76,35.6 Z M2,37.84 L4.24,37.84 L4.24,40.08 L2,40.08 L2,37.84 Z M8.72,37.84 L10.96,37.84 L10.96,40.08 L8.72,40.08 L8.72,37.84 Z M10.96,37.84 L13.2,37.84 L13.2,40.08 L10.96,40.08 L10.96,37.84 Z M13.2,37.84 L15.44,37.84 L15.44,40.08 L13.2,40.08 L13.2,37.84 Z M15.44,37.84 L17.68,37.84 L17.68,40.08 L15.44,40.08 L15.44,37.84 Z M19.92,37.84 L22.16,37.84 L22.16,40.08 L19.92,40.08 L19.92,37.84 Z M22.16,37.84 L24.4,37.84 L24.4,40.08 L22.16,40.08 L22.16,37.84 Z M26.64,37.84 L28.88,37.84 L28.88,40.08 L26.64,40.08 L26.64,37.84 Z M28.88,37.84 L31.12,37.84 L31.12,40.08 L28.88,40.08 L28.88,37.84 Z M31.12,37.84 L33.36,37.84 L33.36,40.08 L31.12,40.08 L31.12,37.84 Z M33.36,37.84 L35.6,37.84 L35.6,40.08 L33.36,40.08 L33.36,37.84 Z M37.84,37.84 L40.08,37.84 L40.08,40.08 L37.84,40.08 L37.84,37.84 Z M40.08,37.84 L42.32,37.84 L42.32,40.08 L40.08,40.08 L40.08,37.84 Z M42.32,37.84 L44.56,37.84 L44.56,40.08 L42.32,40.08 L42.32,37.84 Z M44.56,37.84 L46.8,37.84 L46.8,40.08 L44.56,40.08 L44.56,37.84 Z M46.8,37.84 L49.04,37.84 L49.04,40.08 L46.8,40.08 L46.8,37.84 Z M51.28,37.84 L53.52,37.84 L53.52,40.08 L51.28,40.08 L51.28,37.84 Z M19.92,40.08 L22.16,40.08 L22.16,42.32 L19.92,42.32 L19.92,40.08 Z M22.16,40.08 L24.4,40.08 L24.4,42.32 L22.16,42.32 L22.16,40.08 Z M28.88,40.08 L31.12,40.08 L31.12,42.32 L28.88,42.32 L28.88,40.08 Z M33.36,40.08 L35.6,40.08 L35.6,42.32 L33.36,42.32 L33.36,40.08 Z M35.6,40.08 L37.84,40.08 L37.84,42.32 L35.6,42.32 L35.6,40.08 Z M37.84,40.08 L40.08,40.08 L40.08,42.32 L37.84,42.32 L37.84,40.08 Z M46.8,40.08 L49.04,40.08 L49.04,42.32 L46.8,42.32 L46.8,40.08 Z M49.04,40.08 L51.28,40.08 L51.28,42.32 L49.04,42.32 L49.04,40.08 Z M2,42.32 L4.24,42.32 L4.24,44.56 L2,44.56 L2,42.32 Z M4.24,42.32 L6.48,42.32 L6.48,44.56 L4.24,44.56 L4.24,42.32 Z M6.48,42.32 L8.72,42.32 L8.72,44.56 L6.48,44.56 L6.48,42.32 Z M8.72,42.32 L10.96,42.32 L10.96,44.56 L8.72,44.56 L8.72,42.32 Z M10.96,42.32 L13.2,42.32 L13.2,44.56 L10.96,44.56 L10.96,42.32 Z M13.2,42.32 L15.44,42.32 L15.44,44.56 L13.2,44.56 L13.2,42.32 Z M15.44,42.32 L17.68,42.32 L17.68,44.56 L15.44,44.56 L15.44,42.32 Z M19.92,42.32 L22.16,42.32 L22.16,44.56 L19.92,44.56 L19.92,42.32 Z M24.4,42.32 L26.64,42.32 L26.64,44.56 L24.4,44.56 L24.4,42.32 Z M28.88,42.32 L31.12,42.32 L31.12,44.56 L28.88,44.56 L28.88,42.32 Z M31.12,42.32 L33.36,42.32 L33.36,44.56 L31.12,44.56 L31.12,42.32 Z M37.84,42.32 L40.08,42.32 L40.08,44.56 L37.84,44.56 L37.84,42.32 Z M42.32,42.32 L44.56,42.32 L44.56,44.56 L42.32,44.56 L42.32,42.32 Z M46.8,42.32 L49.04,42.32 L49.04,44.56 L46.8,44.56 L46.8,42.32 Z M51.28,42.32 L53.52,42.32 L53.52,44.56 L51.28,44.56 L51.28,42.32 Z M53.52,42.32 L55.76,42.32 L55.76,44.56 L53.52,44.56 L53.52,42.32 Z M55.76,42.32 L58,42.32 L58,44.56 L55.76,44.56 L55.76,42.32 Z M2,44.56 L4.24,44.56 L4.24,46.8 L2,46.8 L2,44.56 Z M15.44,44.56 L17.68,44.56 L17.68,46.8 L15.44,46.8 L15.44,44.56 Z M26.64,44.56 L28.88,44.56 L28.88,46.8 L26.64,46.8 L26.64,44.56 Z M28.88,44.56 L31.12,44.56 L31.12,46.8 L28.88,46.8 L28.88,44.56 Z M37.84,44.56 L40.08,44.56 L40.08,46.8 L37.84,46.8 L37.84,44.56 Z M46.8,44.56 L49.04,44.56 L49.04,46.8 L46.8,46.8 L46.8,44.56 Z M49.04,44.56 L51.28,44.56 L51.28,46.8 L49.04,46.8 L49.04,44.56 Z M53.52,44.56 L55.76,44.56 L55.76,46.8 L53.52,46.8 L53.52,44.56 Z M55.76,44.56 L58,44.56 L58,46.8 L55.76,46.8 L55.76,44.56 Z M2,46.8 L4.24,46.8 L4.24,49.04 L2,49.04 L2,46.8 Z M6.48,46.8 L8.72,46.8 L8.72,49.04 L6.48,49.04 L6.48,46.8 Z M8.72,46.8 L10.96,46.8 L10.96,49.04 L8.72,49.04 L8.72,46.8 Z M10.96,46.8 L13.2,46.8 L13.2,49.04 L10.96,49.04 L10.96,46.8 Z M15.44,46.8 L17.68,46.8 L17.68,49.04 L15.44,49.04 L15.44,46.8 Z M19.92,46.8 L22.16,46.8 L22.16,49.04 L19.92,49.04 L19.92,46.8 Z M24.4,46.8 L26.64,46.8 L26.64,49.04 L24.4,49.04 L24.4,46.8 Z M31.12,46.8 L33.36,46.8 L33.36,49.04 L31.12,49.04 L31.12,46.8 Z M33.36,46.8 L35.6,46.8 L35.6,49.04 L33.36,49.04 L33.36,46.8 Z M35.6,46.8 L37.84,46.8 L37.84,49.04 L35.6,49.04 L35.6,46.8 Z M37.84,46.8 L40.08,46.8 L40.08,49.04 L37.84,49.04 L37.84,46.8 Z M40.08,46.8 L42.32,46.8 L42.32,49.04 L40.08,49.04 L40.08,46.8 Z M42.32,46.8 L44.56,46.8 L44.56,49.04 L42.32,49.04 L42.32,46.8 Z M44.56,46.8 L46.8,46.8 L46.8,49.04 L44.56,49.04 L44.56,46.8 Z M46.8,46.8 L49.04,46.8 L49.04,49.04 L46.8,49.04 L46.8,46.8 Z M51.28,46.8 L53.52,46.8 L53.52,49.04 L51.28,49.04 L51.28,46.8 Z M2,49.04 L4.24,49.04 L4.24,51.28 L2,51.28 L2,49.04 Z M6.48,49.04 L8.72,49.04 L8.72,51.28 L6.48,51.28 L6.48,49.04 Z M8.72,49.04 L10.96,49.04 L10.96,51.28 L8.72,51.28 L8.72,49.04 Z M10.96,49.04 L13.2,49.04 L13.2,51.28 L10.96,51.28 L10.96,49.04 Z M15.44,49.04 L17.68,49.04 L17.68,51.28 L15.44,51.28 L15.44,49.04 Z M19.92,49.04 L22.16,49.04 L22.16,51.28 L19.92,51.28 L19.92,49.04 Z M22.16,49.04 L24.4,49.04 L24.4,51.28 L22.16,51.28 L22.16,49.04 Z M26.64,49.04 L28.88,49.04 L28.88,51.28 L26.64,51.28 L26.64,49.04 Z M28.88,49.04 L31.12,49.04 L31.12,51.28 L28.88,51.28 L28.88,49.04 Z M31.12,49.04 L33.36,49.04 L33.36,51.28 L31.12,51.28 L31.12,49.04 Z M33.36,49.04 L35.6,49.04 L35.6,51.28 L33.36,51.28 L33.36,49.04 Z M40.08,49.04 L42.32,49.04 L42.32,51.28 L40.08,51.28 L40.08,49.04 Z M42.32,49.04 L44.56,49.04 L44.56,51.28 L42.32,51.28 L42.32,49.04 Z M46.8,49.04 L49.04,49.04 L49.04,51.28 L46.8,51.28 L46.8,49.04 Z M49.04,49.04 L51.28,49.04 L51.28,51.28 L49.04,51.28 L49.04,49.04 Z M51.28,49.04 L53.52,49.04 L53.52,51.28 L51.28,51.28 L51.28,49.04 Z M53.52,49.04 L55.76,49.04 L55.76,51.28 L53.52,51.28 L53.52,49.04 Z M55.76,49.04 L58,49.04 L58,51.28 L55.76,51.28 L55.76,49.04 Z M2,51.28 L4.24,51.28 L4.24,53.52 L2,53.52 L2,51.28 Z M6.48,51.28 L8.72,51.28 L8.72,53.52 L6.48,53.52 L6.48,51.28 Z M8.72,51.28 L10.96,51.28 L10.96,53.52 L8.72,53.52 L8.72,51.28 Z M10.96,51.28 L13.2,51.28 L13.2,53.52 L10.96,53.52 L10.96,51.28 Z M15.44,51.28 L17.68,51.28 L17.68,53.52 L15.44,53.52 L15.44,51.28 Z M19.92,51.28 L22.16,51.28 L22.16,53.52 L19.92,53.52 L19.92,51.28 Z M28.88,51.28 L31.12,51.28 L31.12,53.52 L28.88,53.52 L28.88,51.28 Z M35.6,51.28 L37.84,51.28 L37.84,53.52 L35.6,53.52 L35.6,51.28 Z M37.84,51.28 L40.08,51.28 L40.08,53.52 L37.84,53.52 L37.84,51.28 Z M49.04,51.28 L51.28,51.28 L51.28,53.52 L49.04,53.52 L49.04,51.28 Z M51.28,51.28 L53.52,51.28 L53.52,53.52 L51.28,53.52 L51.28,51.28 Z M55.76,51.28 L58,51.28 L58,53.52 L55.76,53.52 L55.76,51.28 Z M2,53.52 L4.24,53.52 L4.24,55.76 L2,55.76 L2,53.52 Z M15.44,53.52 L17.68,53.52 L17.68,55.76 L15.44,55.76 L15.44,53.52 Z M19.92,53.52 L22.16,53.52 L22.16,55.76 L19.92,55.76 L19.92,53.52 Z M22.16,53.52 L24.4,53.52 L24.4,55.76 L22.16,55.76 L22.16,53.52 Z M26.64,53.52 L28.88,53.52 L28.88,55.76 L26.64,55.76 L26.64,53.52 Z M33.36,53.52 L35.6,53.52 L35.6,55.76 L33.36,55.76 L33.36,53.52 Z M35.6,53.52 L37.84,53.52 L37.84,55.76 L35.6,55.76 L35.6,53.52 Z M37.84,53.52 L40.08,53.52 L40.08,55.76 L37.84,55.76 L37.84,53.52 Z M40.08,53.52 L42.32,53.52 L42.32,55.76 L40.08,55.76 L40.08,53.52 Z M44.56,53.52 L46.8,53.52 L46.8,55.76 L44.56,55.76 L44.56,53.52 Z M46.8,53.52 L49.04,53.52 L49.04,55.76 L46.8,55.76 L46.8,53.52 Z M49.04,53.52 L51.28,53.52 L51.28,55.76 L49.04,55.76 L49.04,53.52 Z M55.76,53.52 L58,53.52 L58,55.76 L55.76,55.76 L55.76,53.52 Z M2,55.76 L4.24,55.76 L4.24,58 L2,58 L2,55.76 Z M4.24,55.76 L6.48,55.76 L6.48,58 L4.24,58 L4.24,55.76 Z M6.48,55.76 L8.72,55.76 L8.72,58 L6.48,58 L6.48,55.76 Z M8.72,55.76 L10.96,55.76 L10.96,58 L8.72,58 L8.72,55.76 Z M10.96,55.76 L13.2,55.76 L13.2,58 L10.96,58 L10.96,55.76 Z M13.2,55.76 L15.44,55.76 L15.44,58 L13.2,58 L13.2,55.76 Z M15.44,55.76 L17.68,55.76 L17.68,58 L15.44,58 L15.44,55.76 Z M19.92,55.76 L22.16,55.76 L22.16,58 L19.92,58 L19.92,55.76 Z M22.16,55.76 L24.4,55.76 L24.4,58 L22.16,58 L22.16,55.76 Z M24.4,55.76 L26.64,55.76 L26.64,58 L24.4,58 L24.4,55.76 Z M31.12,55.76 L33.36,55.76 L33.36,58 L31.12,58 L31.12,55.76 Z M42.32,55.76 L44.56,55.76 L44.56,58 L42.32,58 L42.32,55.76 Z M44.56,55.76 L46.8,55.76 L46.8,58 L44.56,58 L44.56,55.76 Z M46.8,55.76 L49.04,55.76 L49.04,58 L46.8,58 L46.8,55.76 Z M49.04,55.76 L51.28,55.76 L51.28,58 L49.04,58 L49.04,55.76 Z M51.28,55.76 L53.52,55.76 L53.52,58 L51.28,58 L51.28,55.76 Z M53.52,55.76 L55.76,55.76 L55.76,58 L53.52,58 L53.52,55.76 Z M55.76,55.76 L58,55.76 L58,58 L55.76,58 L55.76,55.76 Z" id="Shape" stroke="#000000" fill="#000000"></path>
                </g>
            </g>
        </g>
    </g>
</svg>