<?xml version="1.0" encoding="UTF-8"?>
<svg width="12px" height="10px" viewBox="0 0 12 10" version="1.1" xmlns="http://www.w3.org/2000/svg" xmlns:xlink="http://www.w3.org/1999/xlink">
    <title>Vector</title>
    <g id="Landing-Page" stroke="none" stroke-width="1" fill="none" fill-rule="evenodd">
        <g id="Landing---Finance-App" transform="translate(-152.000000, -2041.000000)" fill="#18181B" fill-rule="nonzero">
            <g id="Footer" transform="translate(0.000000, 1956.000000)">
                <g id="content" transform="translate(152.000000, 80.000000)">
                    <g id="Social" transform="translate(0.000000, 3.226562)">
                        <g id="Group" transform="translate(0.000000, 2.708984)">
                            <path d="M9.84702242,1.42001996 C10.3126027,1.14067176 10.6850667,0.698370541 10.8480198,0.16295318 C10.4057186,0.419022363 9.91685945,0.605254398 9.38144216,0.721649479 C8.96241993,0.279348177 8.35716539,0 7.70535303,0 C6.44828629,0 5.42400991,1.02427651 5.42400991,2.28134341 C5.42400991,2.46757554 5.44728919,2.63052883 5.49384721,2.79348194 C3.60824705,2.70036588 1.9088791,1.79248431 0.768207426,0.395743342 C0.581975317,0.744928584 0.465580265,1.11739277 0.465580265,1.53641505 C0.465580265,2.32790162 0.861323501,3.02627194 1.48985687,3.44529422 C1.11739265,3.4220152 0.768207426,3.3288994 0.442301246,3.16594629 L0.442301246,3.18922495 C0.442301246,4.30661777 1.23378775,5.23777856 2.28134334,5.4472897 C2.09511123,5.49384773 1.88560002,5.51712657 1.67608891,5.51712657 C1.53641482,5.51712657 1.37346183,5.49384782 1.23378775,5.4705688 C1.53641491,6.37845045 2.37445931,7.05354217 3.37545692,7.05354217 C2.58397045,7.65879657 1.60625188,8.03126058 0.535417293,8.03126058 C0.349185185,8.03126058 0.16295309,8.03126094 0,8.00798192 C1.0242766,8.65979436 2.21150637,9.03225899 3.51513109,9.03225899 C7.72863257,9.03225899 10.0332543,5.54040567 10.0332543,2.51413357 C10.0332543,2.4210175 10.0332543,2.3046226 10.0332543,2.21150654 C10.4755556,1.90887934 10.8712992,1.51313616 11.1739264,1.04755584 C10.7549041,1.23378797 10.3126027,1.35018291 9.84702242,1.42001996 Z" id="Vector"></path>
                        </g>
                    </g>
                </g>
            </g>
        </g>
    </g>
</svg>